<?xml version="1.0" encoding="utf-8" standalone="no"?>
<!DOCTYPE svg PUBLIC "-//W3C//DTD SVG 1.1//EN"
  "http://www.w3.org/Graphics/SVG/1.1/DTD/svg11.dtd">
<!-- Created with matplotlib (http://matplotlib.org/) -->
<svg height="733.76125pt" version="1.1" viewBox="0 0 1146.265625 733.76125" width="1146.265625pt" xmlns="http://www.w3.org/2000/svg" xmlns:xlink="http://www.w3.org/1999/xlink">
 <defs>
  <style type="text/css">
*{stroke-linecap:butt;stroke-linejoin:round;}
  </style>
 </defs>
 <g id="figure_1">
  <g id="patch_1">
   <path d="M 0 733.76125 
L 1146.265625 733.76125 
L 1146.265625 0 
L 0 0 
z
" style="fill:#ffffff;"/>
  </g>
  <g id="axes_1">
   <g id="patch_2">
    <path d="M 61.75625 680.72 
L 1066.15625 680.72 
L 1066.15625 28.4 
L 61.75625 28.4 
z
" style="fill:#ffffff;"/>
   </g>
   <g id="matplotlib.axis_1">
    <g id="xtick_1">
     <g id="line2d_1">
      <path clip-path="url(#p1b6f5bad46)" d="M 61.75625 680.72 
L 61.75625 28.4 
" style="fill:none;stroke:#000000;stroke-dasharray:2.442,1.056;stroke-dashoffset:0;stroke-opacity:0.8;stroke-width:0.66;"/>
     </g>
     <g id="line2d_2">
      <defs>
       <path d="M 0 0 
L 0 3.5 
" id="mba8bc9fbf9" style="stroke:#000000;stroke-width:0.8;"/>
      </defs>
      <g>
       <use style="stroke:#000000;stroke-width:0.8;" x="61.75625" xlink:href="#mba8bc9fbf9" y="680.72"/>
      </g>
     </g>
     <g id="text_1">
      <!-- −20 -->
      <defs>
       <path d="M 10.59375 35.5 
L 73.1875 35.5 
L 73.1875 27.203125 
L 10.59375 27.203125 
z
" id="DejaVuSans-2212"/>
       <path d="M 19.1875 8.296875 
L 53.609375 8.296875 
L 53.609375 0 
L 7.328125 0 
L 7.328125 8.296875 
Q 12.9375 14.109375 22.625 23.890625 
Q 32.328125 33.6875 34.8125 36.53125 
Q 39.546875 41.84375 41.421875 45.53125 
Q 43.3125 49.21875 43.3125 52.78125 
Q 43.3125 58.59375 39.234375 62.25 
Q 35.15625 65.921875 28.609375 65.921875 
Q 23.96875 65.921875 18.8125 64.3125 
Q 13.671875 62.703125 7.8125 59.421875 
L 7.8125 69.390625 
Q 13.765625 71.78125 18.9375 73 
Q 24.125 74.21875 28.421875 74.21875 
Q 39.75 74.21875 46.484375 68.546875 
Q 53.21875 62.890625 53.21875 53.421875 
Q 53.21875 48.921875 51.53125 44.890625 
Q 49.859375 40.875 45.40625 35.40625 
Q 44.1875 33.984375 37.640625 27.21875 
Q 31.109375 20.453125 19.1875 8.296875 
z
" id="DejaVuSans-32"/>
       <path d="M 31.78125 66.40625 
Q 24.171875 66.40625 20.328125 58.90625 
Q 16.5 51.421875 16.5 36.375 
Q 16.5 21.390625 20.328125 13.890625 
Q 24.171875 6.390625 31.78125 6.390625 
Q 39.453125 6.390625 43.28125 13.890625 
Q 47.125 21.390625 47.125 36.375 
Q 47.125 51.421875 43.28125 58.90625 
Q 39.453125 66.40625 31.78125 66.40625 
z
M 31.78125 74.21875 
Q 44.046875 74.21875 50.515625 64.515625 
Q 56.984375 54.828125 56.984375 36.375 
Q 56.984375 17.96875 50.515625 8.265625 
Q 44.046875 -1.421875 31.78125 -1.421875 
Q 19.53125 -1.421875 13.0625 8.265625 
Q 6.59375 17.96875 6.59375 36.375 
Q 6.59375 54.828125 13.0625 64.515625 
Q 19.53125 74.21875 31.78125 74.21875 
z
" id="DejaVuSans-30"/>
      </defs>
      <g transform="translate(46.982969 698.357813)scale(0.14 -0.14)">
       <use xlink:href="#DejaVuSans-2212"/>
       <use x="83.789062" xlink:href="#DejaVuSans-32"/>
       <use x="147.412109" xlink:href="#DejaVuSans-30"/>
      </g>
     </g>
    </g>
    <g id="xtick_2">
     <g id="line2d_3">
      <path clip-path="url(#p1b6f5bad46)" d="M 187.30625 680.72 
L 187.30625 28.4 
" style="fill:none;stroke:#000000;stroke-dasharray:2.442,1.056;stroke-dashoffset:0;stroke-opacity:0.8;stroke-width:0.66;"/>
     </g>
     <g id="line2d_4">
      <g>
       <use style="stroke:#000000;stroke-width:0.8;" x="187.30625" xlink:href="#mba8bc9fbf9" y="680.72"/>
      </g>
     </g>
     <g id="text_2">
      <!-- −10 -->
      <defs>
       <path d="M 12.40625 8.296875 
L 28.515625 8.296875 
L 28.515625 63.921875 
L 10.984375 60.40625 
L 10.984375 69.390625 
L 28.421875 72.90625 
L 38.28125 72.90625 
L 38.28125 8.296875 
L 54.390625 8.296875 
L 54.390625 0 
L 12.40625 0 
z
" id="DejaVuSans-31"/>
      </defs>
      <g transform="translate(172.532969 698.357813)scale(0.14 -0.14)">
       <use xlink:href="#DejaVuSans-2212"/>
       <use x="83.789062" xlink:href="#DejaVuSans-31"/>
       <use x="147.412109" xlink:href="#DejaVuSans-30"/>
      </g>
     </g>
    </g>
    <g id="xtick_3">
     <g id="line2d_5">
      <path clip-path="url(#p1b6f5bad46)" d="M 312.85625 680.72 
L 312.85625 28.4 
" style="fill:none;stroke:#000000;stroke-dasharray:2.442,1.056;stroke-dashoffset:0;stroke-opacity:0.8;stroke-width:0.66;"/>
     </g>
     <g id="line2d_6">
      <g>
       <use style="stroke:#000000;stroke-width:0.8;" x="312.85625" xlink:href="#mba8bc9fbf9" y="680.72"/>
      </g>
     </g>
     <g id="text_3">
      <!-- 0 -->
      <g transform="translate(308.4025 698.357813)scale(0.14 -0.14)">
       <use xlink:href="#DejaVuSans-30"/>
      </g>
     </g>
    </g>
    <g id="xtick_4">
     <g id="line2d_7">
      <path clip-path="url(#p1b6f5bad46)" d="M 438.40625 680.72 
L 438.40625 28.4 
" style="fill:none;stroke:#000000;stroke-dasharray:2.442,1.056;stroke-dashoffset:0;stroke-opacity:0.8;stroke-width:0.66;"/>
     </g>
     <g id="line2d_8">
      <g>
       <use style="stroke:#000000;stroke-width:0.8;" x="438.40625" xlink:href="#mba8bc9fbf9" y="680.72"/>
      </g>
     </g>
     <g id="text_4">
      <!-- 10 -->
      <g transform="translate(429.49875 698.357813)scale(0.14 -0.14)">
       <use xlink:href="#DejaVuSans-31"/>
       <use x="63.623047" xlink:href="#DejaVuSans-30"/>
      </g>
     </g>
    </g>
    <g id="xtick_5">
     <g id="line2d_9">
      <path clip-path="url(#p1b6f5bad46)" d="M 563.95625 680.72 
L 563.95625 28.4 
" style="fill:none;stroke:#000000;stroke-dasharray:2.442,1.056;stroke-dashoffset:0;stroke-opacity:0.8;stroke-width:0.66;"/>
     </g>
     <g id="line2d_10">
      <g>
       <use style="stroke:#000000;stroke-width:0.8;" x="563.95625" xlink:href="#mba8bc9fbf9" y="680.72"/>
      </g>
     </g>
     <g id="text_5">
      <!-- 20 -->
      <g transform="translate(555.04875 698.357813)scale(0.14 -0.14)">
       <use xlink:href="#DejaVuSans-32"/>
       <use x="63.623047" xlink:href="#DejaVuSans-30"/>
      </g>
     </g>
    </g>
    <g id="xtick_6">
     <g id="line2d_11">
      <path clip-path="url(#p1b6f5bad46)" d="M 689.50625 680.72 
L 689.50625 28.4 
" style="fill:none;stroke:#000000;stroke-dasharray:2.442,1.056;stroke-dashoffset:0;stroke-opacity:0.8;stroke-width:0.66;"/>
     </g>
     <g id="line2d_12">
      <g>
       <use style="stroke:#000000;stroke-width:0.8;" x="689.50625" xlink:href="#mba8bc9fbf9" y="680.72"/>
      </g>
     </g>
     <g id="text_6">
      <!-- 30 -->
      <defs>
       <path d="M 40.578125 39.3125 
Q 47.65625 37.796875 51.625 33 
Q 55.609375 28.21875 55.609375 21.1875 
Q 55.609375 10.40625 48.1875 4.484375 
Q 40.765625 -1.421875 27.09375 -1.421875 
Q 22.515625 -1.421875 17.65625 -0.515625 
Q 12.796875 0.390625 7.625 2.203125 
L 7.625 11.71875 
Q 11.71875 9.328125 16.59375 8.109375 
Q 21.484375 6.890625 26.8125 6.890625 
Q 36.078125 6.890625 40.9375 10.546875 
Q 45.796875 14.203125 45.796875 21.1875 
Q 45.796875 27.640625 41.28125 31.265625 
Q 36.765625 34.90625 28.71875 34.90625 
L 20.21875 34.90625 
L 20.21875 43.015625 
L 29.109375 43.015625 
Q 36.375 43.015625 40.234375 45.921875 
Q 44.09375 48.828125 44.09375 54.296875 
Q 44.09375 59.90625 40.109375 62.90625 
Q 36.140625 65.921875 28.71875 65.921875 
Q 24.65625 65.921875 20.015625 65.03125 
Q 15.375 64.15625 9.8125 62.3125 
L 9.8125 71.09375 
Q 15.4375 72.65625 20.34375 73.4375 
Q 25.25 74.21875 29.59375 74.21875 
Q 40.828125 74.21875 47.359375 69.109375 
Q 53.90625 64.015625 53.90625 55.328125 
Q 53.90625 49.265625 50.4375 45.09375 
Q 46.96875 40.921875 40.578125 39.3125 
z
" id="DejaVuSans-33"/>
      </defs>
      <g transform="translate(680.59875 698.357813)scale(0.14 -0.14)">
       <use xlink:href="#DejaVuSans-33"/>
       <use x="63.623047" xlink:href="#DejaVuSans-30"/>
      </g>
     </g>
    </g>
    <g id="xtick_7">
     <g id="line2d_13">
      <path clip-path="url(#p1b6f5bad46)" d="M 815.05625 680.72 
L 815.05625 28.4 
" style="fill:none;stroke:#000000;stroke-dasharray:2.442,1.056;stroke-dashoffset:0;stroke-opacity:0.8;stroke-width:0.66;"/>
     </g>
     <g id="line2d_14">
      <g>
       <use style="stroke:#000000;stroke-width:0.8;" x="815.05625" xlink:href="#mba8bc9fbf9" y="680.72"/>
      </g>
     </g>
     <g id="text_7">
      <!-- 40 -->
      <defs>
       <path d="M 37.796875 64.3125 
L 12.890625 25.390625 
L 37.796875 25.390625 
z
M 35.203125 72.90625 
L 47.609375 72.90625 
L 47.609375 25.390625 
L 58.015625 25.390625 
L 58.015625 17.1875 
L 47.609375 17.1875 
L 47.609375 0 
L 37.796875 0 
L 37.796875 17.1875 
L 4.890625 17.1875 
L 4.890625 26.703125 
z
" id="DejaVuSans-34"/>
      </defs>
      <g transform="translate(806.14875 698.357813)scale(0.14 -0.14)">
       <use xlink:href="#DejaVuSans-34"/>
       <use x="63.623047" xlink:href="#DejaVuSans-30"/>
      </g>
     </g>
    </g>
    <g id="xtick_8">
     <g id="line2d_15">
      <path clip-path="url(#p1b6f5bad46)" d="M 940.60625 680.72 
L 940.60625 28.4 
" style="fill:none;stroke:#000000;stroke-dasharray:2.442,1.056;stroke-dashoffset:0;stroke-opacity:0.8;stroke-width:0.66;"/>
     </g>
     <g id="line2d_16">
      <g>
       <use style="stroke:#000000;stroke-width:0.8;" x="940.60625" xlink:href="#mba8bc9fbf9" y="680.72"/>
      </g>
     </g>
     <g id="text_8">
      <!-- 50 -->
      <defs>
       <path d="M 10.796875 72.90625 
L 49.515625 72.90625 
L 49.515625 64.59375 
L 19.828125 64.59375 
L 19.828125 46.734375 
Q 21.96875 47.46875 24.109375 47.828125 
Q 26.265625 48.1875 28.421875 48.1875 
Q 40.625 48.1875 47.75 41.5 
Q 54.890625 34.8125 54.890625 23.390625 
Q 54.890625 11.625 47.5625 5.09375 
Q 40.234375 -1.421875 26.90625 -1.421875 
Q 22.3125 -1.421875 17.546875 -0.640625 
Q 12.796875 0.140625 7.71875 1.703125 
L 7.71875 11.625 
Q 12.109375 9.234375 16.796875 8.0625 
Q 21.484375 6.890625 26.703125 6.890625 
Q 35.15625 6.890625 40.078125 11.328125 
Q 45.015625 15.765625 45.015625 23.390625 
Q 45.015625 31 40.078125 35.4375 
Q 35.15625 39.890625 26.703125 39.890625 
Q 22.75 39.890625 18.8125 39.015625 
Q 14.890625 38.140625 10.796875 36.28125 
z
" id="DejaVuSans-35"/>
      </defs>
      <g transform="translate(931.69875 698.357813)scale(0.14 -0.14)">
       <use xlink:href="#DejaVuSans-35"/>
       <use x="63.623047" xlink:href="#DejaVuSans-30"/>
      </g>
     </g>
    </g>
    <g id="xtick_9">
     <g id="line2d_17">
      <path clip-path="url(#p1b6f5bad46)" d="M 1066.15625 680.72 
L 1066.15625 28.4 
" style="fill:none;stroke:#000000;stroke-dasharray:2.442,1.056;stroke-dashoffset:0;stroke-opacity:0.8;stroke-width:0.66;"/>
     </g>
     <g id="line2d_18">
      <g>
       <use style="stroke:#000000;stroke-width:0.8;" x="1066.15625" xlink:href="#mba8bc9fbf9" y="680.72"/>
      </g>
     </g>
     <g id="text_9">
      <!-- 60 -->
      <defs>
       <path d="M 33.015625 40.375 
Q 26.375 40.375 22.484375 35.828125 
Q 18.609375 31.296875 18.609375 23.390625 
Q 18.609375 15.53125 22.484375 10.953125 
Q 26.375 6.390625 33.015625 6.390625 
Q 39.65625 6.390625 43.53125 10.953125 
Q 47.40625 15.53125 47.40625 23.390625 
Q 47.40625 31.296875 43.53125 35.828125 
Q 39.65625 40.375 33.015625 40.375 
z
M 52.59375 71.296875 
L 52.59375 62.3125 
Q 48.875 64.0625 45.09375 64.984375 
Q 41.3125 65.921875 37.59375 65.921875 
Q 27.828125 65.921875 22.671875 59.328125 
Q 17.53125 52.734375 16.796875 39.40625 
Q 19.671875 43.65625 24.015625 45.921875 
Q 28.375 48.1875 33.59375 48.1875 
Q 44.578125 48.1875 50.953125 41.515625 
Q 57.328125 34.859375 57.328125 23.390625 
Q 57.328125 12.15625 50.6875 5.359375 
Q 44.046875 -1.421875 33.015625 -1.421875 
Q 20.359375 -1.421875 13.671875 8.265625 
Q 6.984375 17.96875 6.984375 36.375 
Q 6.984375 53.65625 15.1875 63.9375 
Q 23.390625 74.21875 37.203125 74.21875 
Q 40.921875 74.21875 44.703125 73.484375 
Q 48.484375 72.75 52.59375 71.296875 
z
" id="DejaVuSans-36"/>
      </defs>
      <g transform="translate(1057.24875 698.357813)scale(0.14 -0.14)">
       <use xlink:href="#DejaVuSans-36"/>
       <use x="63.623047" xlink:href="#DejaVuSans-30"/>
      </g>
     </g>
    </g>
    <g id="text_10">
     <!-- Armor -->
     <defs>
      <path d="M 34.1875 63.1875 
L 20.796875 26.90625 
L 47.609375 26.90625 
z
M 28.609375 72.90625 
L 39.796875 72.90625 
L 67.578125 0 
L 57.328125 0 
L 50.6875 18.703125 
L 17.828125 18.703125 
L 11.1875 0 
L 0.78125 0 
z
" id="DejaVuSans-41"/>
      <path d="M 41.109375 46.296875 
Q 39.59375 47.171875 37.8125 47.578125 
Q 36.03125 48 33.890625 48 
Q 26.265625 48 22.1875 43.046875 
Q 18.109375 38.09375 18.109375 28.8125 
L 18.109375 0 
L 9.078125 0 
L 9.078125 54.6875 
L 18.109375 54.6875 
L 18.109375 46.1875 
Q 20.953125 51.171875 25.484375 53.578125 
Q 30.03125 56 36.53125 56 
Q 37.453125 56 38.578125 55.875 
Q 39.703125 55.765625 41.0625 55.515625 
z
" id="DejaVuSans-72"/>
      <path d="M 52 44.1875 
Q 55.375 50.25 60.0625 53.125 
Q 64.75 56 71.09375 56 
Q 79.640625 56 84.28125 50.015625 
Q 88.921875 44.046875 88.921875 33.015625 
L 88.921875 0 
L 79.890625 0 
L 79.890625 32.71875 
Q 79.890625 40.578125 77.09375 44.375 
Q 74.3125 48.1875 68.609375 48.1875 
Q 61.625 48.1875 57.5625 43.546875 
Q 53.515625 38.921875 53.515625 30.90625 
L 53.515625 0 
L 44.484375 0 
L 44.484375 32.71875 
Q 44.484375 40.625 41.703125 44.40625 
Q 38.921875 48.1875 33.109375 48.1875 
Q 26.21875 48.1875 22.15625 43.53125 
Q 18.109375 38.875 18.109375 30.90625 
L 18.109375 0 
L 9.078125 0 
L 9.078125 54.6875 
L 18.109375 54.6875 
L 18.109375 46.1875 
Q 21.1875 51.21875 25.484375 53.609375 
Q 29.78125 56 35.6875 56 
Q 41.65625 56 45.828125 52.96875 
Q 50 49.953125 52 44.1875 
z
" id="DejaVuSans-6d"/>
      <path d="M 30.609375 48.390625 
Q 23.390625 48.390625 19.1875 42.75 
Q 14.984375 37.109375 14.984375 27.296875 
Q 14.984375 17.484375 19.15625 11.84375 
Q 23.34375 6.203125 30.609375 6.203125 
Q 37.796875 6.203125 41.984375 11.859375 
Q 46.1875 17.53125 46.1875 27.296875 
Q 46.1875 37.015625 41.984375 42.703125 
Q 37.796875 48.390625 30.609375 48.390625 
z
M 30.609375 56 
Q 42.328125 56 49.015625 48.375 
Q 55.71875 40.765625 55.71875 27.296875 
Q 55.71875 13.875 49.015625 6.21875 
Q 42.328125 -1.421875 30.609375 -1.421875 
Q 18.84375 -1.421875 12.171875 6.21875 
Q 5.515625 13.875 5.515625 27.296875 
Q 5.515625 40.765625 12.171875 48.375 
Q 18.84375 56 30.609375 56 
z
" id="DejaVuSans-6f"/>
     </defs>
     <g transform="translate(529.943906 721.985937)scale(0.22 -0.22)">
      <use xlink:href="#DejaVuSans-41"/>
      <use x="68.408203" xlink:href="#DejaVuSans-72"/>
      <use x="109.505859" xlink:href="#DejaVuSans-6d"/>
      <use x="206.917969" xlink:href="#DejaVuSans-6f"/>
      <use x="268.099609" xlink:href="#DejaVuSans-72"/>
     </g>
    </g>
   </g>
   <g id="matplotlib.axis_2">
    <g id="ytick_1">
     <g id="line2d_19">
      <path clip-path="url(#p1b6f5bad46)" d="M 61.75625 680.72 
L 1066.15625 680.72 
" style="fill:none;stroke:#000000;stroke-dasharray:2.442,1.056;stroke-dashoffset:0;stroke-opacity:0.8;stroke-width:0.66;"/>
     </g>
     <g id="line2d_20">
      <defs>
       <path d="M 0 0 
L -3.5 0 
" id="m13dbdca411" style="stroke:#000000;stroke-width:0.8;"/>
      </defs>
      <g>
       <use style="stroke:#000000;stroke-width:0.8;" x="61.75625" xlink:href="#m13dbdca411" y="680.72"/>
      </g>
     </g>
     <g id="text_11">
      <!-- 0.0 -->
      <defs>
       <path d="M 10.6875 12.40625 
L 21 12.40625 
L 21 0 
L 10.6875 0 
z
" id="DejaVuSans-2e"/>
      </defs>
      <g transform="translate(32.491875 686.038906)scale(0.14 -0.14)">
       <use xlink:href="#DejaVuSans-30"/>
       <use x="63.623047" xlink:href="#DejaVuSans-2e"/>
       <use x="95.410156" xlink:href="#DejaVuSans-30"/>
      </g>
     </g>
    </g>
    <g id="ytick_2">
     <g id="line2d_21">
      <path clip-path="url(#p1b6f5bad46)" d="M 61.75625 599.18 
L 1066.15625 599.18 
" style="fill:none;stroke:#000000;stroke-dasharray:2.442,1.056;stroke-dashoffset:0;stroke-opacity:0.8;stroke-width:0.66;"/>
     </g>
     <g id="line2d_22">
      <g>
       <use style="stroke:#000000;stroke-width:0.8;" x="61.75625" xlink:href="#m13dbdca411" y="599.18"/>
      </g>
     </g>
     <g id="text_12">
      <!-- 0.2 -->
      <g transform="translate(32.491875 604.498906)scale(0.14 -0.14)">
       <use xlink:href="#DejaVuSans-30"/>
       <use x="63.623047" xlink:href="#DejaVuSans-2e"/>
       <use x="95.410156" xlink:href="#DejaVuSans-32"/>
      </g>
     </g>
    </g>
    <g id="ytick_3">
     <g id="line2d_23">
      <path clip-path="url(#p1b6f5bad46)" d="M 61.75625 517.64 
L 1066.15625 517.64 
" style="fill:none;stroke:#000000;stroke-dasharray:2.442,1.056;stroke-dashoffset:0;stroke-opacity:0.8;stroke-width:0.66;"/>
     </g>
     <g id="line2d_24">
      <g>
       <use style="stroke:#000000;stroke-width:0.8;" x="61.75625" xlink:href="#m13dbdca411" y="517.64"/>
      </g>
     </g>
     <g id="text_13">
      <!-- 0.4 -->
      <g transform="translate(32.491875 522.958906)scale(0.14 -0.14)">
       <use xlink:href="#DejaVuSans-30"/>
       <use x="63.623047" xlink:href="#DejaVuSans-2e"/>
       <use x="95.410156" xlink:href="#DejaVuSans-34"/>
      </g>
     </g>
    </g>
    <g id="ytick_4">
     <g id="line2d_25">
      <path clip-path="url(#p1b6f5bad46)" d="M 61.75625 436.1 
L 1066.15625 436.1 
" style="fill:none;stroke:#000000;stroke-dasharray:2.442,1.056;stroke-dashoffset:0;stroke-opacity:0.8;stroke-width:0.66;"/>
     </g>
     <g id="line2d_26">
      <g>
       <use style="stroke:#000000;stroke-width:0.8;" x="61.75625" xlink:href="#m13dbdca411" y="436.1"/>
      </g>
     </g>
     <g id="text_14">
      <!-- 0.6 -->
      <g transform="translate(32.491875 441.418906)scale(0.14 -0.14)">
       <use xlink:href="#DejaVuSans-30"/>
       <use x="63.623047" xlink:href="#DejaVuSans-2e"/>
       <use x="95.410156" xlink:href="#DejaVuSans-36"/>
      </g>
     </g>
    </g>
    <g id="ytick_5">
     <g id="line2d_27">
      <path clip-path="url(#p1b6f5bad46)" d="M 61.75625 354.56 
L 1066.15625 354.56 
" style="fill:none;stroke:#000000;stroke-dasharray:2.442,1.056;stroke-dashoffset:0;stroke-opacity:0.8;stroke-width:0.66;"/>
     </g>
     <g id="line2d_28">
      <g>
       <use style="stroke:#000000;stroke-width:0.8;" x="61.75625" xlink:href="#m13dbdca411" y="354.56"/>
      </g>
     </g>
     <g id="text_15">
      <!-- 0.8 -->
      <defs>
       <path d="M 31.78125 34.625 
Q 24.75 34.625 20.71875 30.859375 
Q 16.703125 27.09375 16.703125 20.515625 
Q 16.703125 13.921875 20.71875 10.15625 
Q 24.75 6.390625 31.78125 6.390625 
Q 38.8125 6.390625 42.859375 10.171875 
Q 46.921875 13.96875 46.921875 20.515625 
Q 46.921875 27.09375 42.890625 30.859375 
Q 38.875 34.625 31.78125 34.625 
z
M 21.921875 38.8125 
Q 15.578125 40.375 12.03125 44.71875 
Q 8.5 49.078125 8.5 55.328125 
Q 8.5 64.0625 14.71875 69.140625 
Q 20.953125 74.21875 31.78125 74.21875 
Q 42.671875 74.21875 48.875 69.140625 
Q 55.078125 64.0625 55.078125 55.328125 
Q 55.078125 49.078125 51.53125 44.71875 
Q 48 40.375 41.703125 38.8125 
Q 48.828125 37.15625 52.796875 32.3125 
Q 56.78125 27.484375 56.78125 20.515625 
Q 56.78125 9.90625 50.3125 4.234375 
Q 43.84375 -1.421875 31.78125 -1.421875 
Q 19.734375 -1.421875 13.25 4.234375 
Q 6.78125 9.90625 6.78125 20.515625 
Q 6.78125 27.484375 10.78125 32.3125 
Q 14.796875 37.15625 21.921875 38.8125 
z
M 18.3125 54.390625 
Q 18.3125 48.734375 21.84375 45.5625 
Q 25.390625 42.390625 31.78125 42.390625 
Q 38.140625 42.390625 41.71875 45.5625 
Q 45.3125 48.734375 45.3125 54.390625 
Q 45.3125 60.0625 41.71875 63.234375 
Q 38.140625 66.40625 31.78125 66.40625 
Q 25.390625 66.40625 21.84375 63.234375 
Q 18.3125 60.0625 18.3125 54.390625 
z
" id="DejaVuSans-38"/>
      </defs>
      <g transform="translate(32.491875 359.878906)scale(0.14 -0.14)">
       <use xlink:href="#DejaVuSans-30"/>
       <use x="63.623047" xlink:href="#DejaVuSans-2e"/>
       <use x="95.410156" xlink:href="#DejaVuSans-38"/>
      </g>
     </g>
    </g>
    <g id="ytick_6">
     <g id="line2d_29">
      <path clip-path="url(#p1b6f5bad46)" d="M 61.75625 273.02 
L 1066.15625 273.02 
" style="fill:none;stroke:#000000;stroke-dasharray:2.442,1.056;stroke-dashoffset:0;stroke-opacity:0.8;stroke-width:0.66;"/>
     </g>
     <g id="line2d_30">
      <g>
       <use style="stroke:#000000;stroke-width:0.8;" x="61.75625" xlink:href="#m13dbdca411" y="273.02"/>
      </g>
     </g>
     <g id="text_16">
      <!-- 1.0 -->
      <g transform="translate(32.491875 278.338906)scale(0.14 -0.14)">
       <use xlink:href="#DejaVuSans-31"/>
       <use x="63.623047" xlink:href="#DejaVuSans-2e"/>
       <use x="95.410156" xlink:href="#DejaVuSans-30"/>
      </g>
     </g>
    </g>
    <g id="ytick_7">
     <g id="line2d_31">
      <path clip-path="url(#p1b6f5bad46)" d="M 61.75625 191.48 
L 1066.15625 191.48 
" style="fill:none;stroke:#000000;stroke-dasharray:2.442,1.056;stroke-dashoffset:0;stroke-opacity:0.8;stroke-width:0.66;"/>
     </g>
     <g id="line2d_32">
      <g>
       <use style="stroke:#000000;stroke-width:0.8;" x="61.75625" xlink:href="#m13dbdca411" y="191.48"/>
      </g>
     </g>
     <g id="text_17">
      <!-- 1.2 -->
      <g transform="translate(32.491875 196.798906)scale(0.14 -0.14)">
       <use xlink:href="#DejaVuSans-31"/>
       <use x="63.623047" xlink:href="#DejaVuSans-2e"/>
       <use x="95.410156" xlink:href="#DejaVuSans-32"/>
      </g>
     </g>
    </g>
    <g id="ytick_8">
     <g id="line2d_33">
      <path clip-path="url(#p1b6f5bad46)" d="M 61.75625 109.94 
L 1066.15625 109.94 
" style="fill:none;stroke:#000000;stroke-dasharray:2.442,1.056;stroke-dashoffset:0;stroke-opacity:0.8;stroke-width:0.66;"/>
     </g>
     <g id="line2d_34">
      <g>
       <use style="stroke:#000000;stroke-width:0.8;" x="61.75625" xlink:href="#m13dbdca411" y="109.94"/>
      </g>
     </g>
     <g id="text_18">
      <!-- 1.4 -->
      <g transform="translate(32.491875 115.258906)scale(0.14 -0.14)">
       <use xlink:href="#DejaVuSans-31"/>
       <use x="63.623047" xlink:href="#DejaVuSans-2e"/>
       <use x="95.410156" xlink:href="#DejaVuSans-34"/>
      </g>
     </g>
    </g>
    <g id="ytick_9">
     <g id="line2d_35">
      <path clip-path="url(#p1b6f5bad46)" d="M 61.75625 28.4 
L 1066.15625 28.4 
" style="fill:none;stroke:#000000;stroke-dasharray:2.442,1.056;stroke-dashoffset:0;stroke-opacity:0.8;stroke-width:0.66;"/>
     </g>
     <g id="line2d_36">
      <g>
       <use style="stroke:#000000;stroke-width:0.8;" x="61.75625" xlink:href="#m13dbdca411" y="28.4"/>
      </g>
     </g>
     <g id="text_19">
      <!-- 1.6 -->
      <g transform="translate(32.491875 33.718906)scale(0.14 -0.14)">
       <use xlink:href="#DejaVuSans-31"/>
       <use x="63.623047" xlink:href="#DejaVuSans-2e"/>
       <use x="95.410156" xlink:href="#DejaVuSans-36"/>
      </g>
     </g>
    </g>
    <g id="text_20">
     <!-- Damage Multiplier -->
     <defs>
      <path d="M 19.671875 64.796875 
L 19.671875 8.109375 
L 31.59375 8.109375 
Q 46.6875 8.109375 53.6875 14.9375 
Q 60.6875 21.78125 60.6875 36.53125 
Q 60.6875 51.171875 53.6875 57.984375 
Q 46.6875 64.796875 31.59375 64.796875 
z
M 9.8125 72.90625 
L 30.078125 72.90625 
Q 51.265625 72.90625 61.171875 64.09375 
Q 71.09375 55.28125 71.09375 36.53125 
Q 71.09375 17.671875 61.125 8.828125 
Q 51.171875 0 30.078125 0 
L 9.8125 0 
z
" id="DejaVuSans-44"/>
      <path d="M 34.28125 27.484375 
Q 23.390625 27.484375 19.1875 25 
Q 14.984375 22.515625 14.984375 16.5 
Q 14.984375 11.71875 18.140625 8.90625 
Q 21.296875 6.109375 26.703125 6.109375 
Q 34.1875 6.109375 38.703125 11.40625 
Q 43.21875 16.703125 43.21875 25.484375 
L 43.21875 27.484375 
z
M 52.203125 31.203125 
L 52.203125 0 
L 43.21875 0 
L 43.21875 8.296875 
Q 40.140625 3.328125 35.546875 0.953125 
Q 30.953125 -1.421875 24.3125 -1.421875 
Q 15.921875 -1.421875 10.953125 3.296875 
Q 6 8.015625 6 15.921875 
Q 6 25.140625 12.171875 29.828125 
Q 18.359375 34.515625 30.609375 34.515625 
L 43.21875 34.515625 
L 43.21875 35.40625 
Q 43.21875 41.609375 39.140625 45 
Q 35.0625 48.390625 27.6875 48.390625 
Q 23 48.390625 18.546875 47.265625 
Q 14.109375 46.140625 10.015625 43.890625 
L 10.015625 52.203125 
Q 14.9375 54.109375 19.578125 55.046875 
Q 24.21875 56 28.609375 56 
Q 40.484375 56 46.34375 49.84375 
Q 52.203125 43.703125 52.203125 31.203125 
z
" id="DejaVuSans-61"/>
      <path d="M 45.40625 27.984375 
Q 45.40625 37.75 41.375 43.109375 
Q 37.359375 48.484375 30.078125 48.484375 
Q 22.859375 48.484375 18.828125 43.109375 
Q 14.796875 37.75 14.796875 27.984375 
Q 14.796875 18.265625 18.828125 12.890625 
Q 22.859375 7.515625 30.078125 7.515625 
Q 37.359375 7.515625 41.375 12.890625 
Q 45.40625 18.265625 45.40625 27.984375 
z
M 54.390625 6.78125 
Q 54.390625 -7.171875 48.1875 -13.984375 
Q 42 -20.796875 29.203125 -20.796875 
Q 24.46875 -20.796875 20.265625 -20.09375 
Q 16.0625 -19.390625 12.109375 -17.921875 
L 12.109375 -9.1875 
Q 16.0625 -11.328125 19.921875 -12.34375 
Q 23.78125 -13.375 27.78125 -13.375 
Q 36.625 -13.375 41.015625 -8.765625 
Q 45.40625 -4.15625 45.40625 5.171875 
L 45.40625 9.625 
Q 42.625 4.78125 38.28125 2.390625 
Q 33.9375 0 27.875 0 
Q 17.828125 0 11.671875 7.65625 
Q 5.515625 15.328125 5.515625 27.984375 
Q 5.515625 40.671875 11.671875 48.328125 
Q 17.828125 56 27.875 56 
Q 33.9375 56 38.28125 53.609375 
Q 42.625 51.21875 45.40625 46.390625 
L 45.40625 54.6875 
L 54.390625 54.6875 
z
" id="DejaVuSans-67"/>
      <path d="M 56.203125 29.59375 
L 56.203125 25.203125 
L 14.890625 25.203125 
Q 15.484375 15.921875 20.484375 11.0625 
Q 25.484375 6.203125 34.421875 6.203125 
Q 39.59375 6.203125 44.453125 7.46875 
Q 49.3125 8.734375 54.109375 11.28125 
L 54.109375 2.78125 
Q 49.265625 0.734375 44.1875 -0.34375 
Q 39.109375 -1.421875 33.890625 -1.421875 
Q 20.796875 -1.421875 13.15625 6.1875 
Q 5.515625 13.8125 5.515625 26.8125 
Q 5.515625 40.234375 12.765625 48.109375 
Q 20.015625 56 32.328125 56 
Q 43.359375 56 49.78125 48.890625 
Q 56.203125 41.796875 56.203125 29.59375 
z
M 47.21875 32.234375 
Q 47.125 39.59375 43.09375 43.984375 
Q 39.0625 48.390625 32.421875 48.390625 
Q 24.90625 48.390625 20.390625 44.140625 
Q 15.875 39.890625 15.1875 32.171875 
z
" id="DejaVuSans-65"/>
      <path id="DejaVuSans-20"/>
      <path d="M 9.8125 72.90625 
L 24.515625 72.90625 
L 43.109375 23.296875 
L 61.8125 72.90625 
L 76.515625 72.90625 
L 76.515625 0 
L 66.890625 0 
L 66.890625 64.015625 
L 48.09375 14.015625 
L 38.1875 14.015625 
L 19.390625 64.015625 
L 19.390625 0 
L 9.8125 0 
z
" id="DejaVuSans-4d"/>
      <path d="M 8.5 21.578125 
L 8.5 54.6875 
L 17.484375 54.6875 
L 17.484375 21.921875 
Q 17.484375 14.15625 20.5 10.265625 
Q 23.53125 6.390625 29.59375 6.390625 
Q 36.859375 6.390625 41.078125 11.03125 
Q 45.3125 15.671875 45.3125 23.6875 
L 45.3125 54.6875 
L 54.296875 54.6875 
L 54.296875 0 
L 45.3125 0 
L 45.3125 8.40625 
Q 42.046875 3.421875 37.71875 1 
Q 33.40625 -1.421875 27.6875 -1.421875 
Q 18.265625 -1.421875 13.375 4.4375 
Q 8.5 10.296875 8.5 21.578125 
z
M 31.109375 56 
z
" id="DejaVuSans-75"/>
      <path d="M 9.421875 75.984375 
L 18.40625 75.984375 
L 18.40625 0 
L 9.421875 0 
z
" id="DejaVuSans-6c"/>
      <path d="M 18.3125 70.21875 
L 18.3125 54.6875 
L 36.8125 54.6875 
L 36.8125 47.703125 
L 18.3125 47.703125 
L 18.3125 18.015625 
Q 18.3125 11.328125 20.140625 9.421875 
Q 21.96875 7.515625 27.59375 7.515625 
L 36.8125 7.515625 
L 36.8125 0 
L 27.59375 0 
Q 17.1875 0 13.234375 3.875 
Q 9.28125 7.765625 9.28125 18.015625 
L 9.28125 47.703125 
L 2.6875 47.703125 
L 2.6875 54.6875 
L 9.28125 54.6875 
L 9.28125 70.21875 
z
" id="DejaVuSans-74"/>
      <path d="M 9.421875 54.6875 
L 18.40625 54.6875 
L 18.40625 0 
L 9.421875 0 
z
M 9.421875 75.984375 
L 18.40625 75.984375 
L 18.40625 64.59375 
L 9.421875 64.59375 
z
" id="DejaVuSans-69"/>
      <path d="M 18.109375 8.203125 
L 18.109375 -20.796875 
L 9.078125 -20.796875 
L 9.078125 54.6875 
L 18.109375 54.6875 
L 18.109375 46.390625 
Q 20.953125 51.265625 25.265625 53.625 
Q 29.59375 56 35.59375 56 
Q 45.5625 56 51.78125 48.09375 
Q 58.015625 40.1875 58.015625 27.296875 
Q 58.015625 14.40625 51.78125 6.484375 
Q 45.5625 -1.421875 35.59375 -1.421875 
Q 29.59375 -1.421875 25.265625 0.953125 
Q 20.953125 3.328125 18.109375 8.203125 
z
M 48.6875 27.296875 
Q 48.6875 37.203125 44.609375 42.84375 
Q 40.53125 48.484375 33.40625 48.484375 
Q 26.265625 48.484375 22.1875 42.84375 
Q 18.109375 37.203125 18.109375 27.296875 
Q 18.109375 17.390625 22.1875 11.75 
Q 26.265625 6.109375 33.40625 6.109375 
Q 40.53125 6.109375 44.609375 11.75 
Q 48.6875 17.390625 48.6875 27.296875 
z
" id="DejaVuSans-70"/>
     </defs>
     <g transform="translate(23.916563 455.74625)rotate(-90)scale(0.22 -0.22)">
      <use xlink:href="#DejaVuSans-44"/>
      <use x="77.001953" xlink:href="#DejaVuSans-61"/>
      <use x="138.28125" xlink:href="#DejaVuSans-6d"/>
      <use x="235.693359" xlink:href="#DejaVuSans-61"/>
      <use x="296.972656" xlink:href="#DejaVuSans-67"/>
      <use x="360.449219" xlink:href="#DejaVuSans-65"/>
      <use x="421.972656" xlink:href="#DejaVuSans-20"/>
      <use x="453.759766" xlink:href="#DejaVuSans-4d"/>
      <use x="540.039062" xlink:href="#DejaVuSans-75"/>
      <use x="603.417969" xlink:href="#DejaVuSans-6c"/>
      <use x="631.201172" xlink:href="#DejaVuSans-74"/>
      <use x="670.410156" xlink:href="#DejaVuSans-69"/>
      <use x="698.193359" xlink:href="#DejaVuSans-70"/>
      <use x="761.669922" xlink:href="#DejaVuSans-6c"/>
      <use x="789.453125" xlink:href="#DejaVuSans-69"/>
      <use x="817.236328" xlink:href="#DejaVuSans-65"/>
      <use x="878.759766" xlink:href="#DejaVuSans-72"/>
     </g>
    </g>
   </g>
   <g id="line2d_37">
    <path clip-path="url(#p1b6f5bad46)" d="M 312.85625 680.72 
L 312.85625 28.4 
" style="fill:none;stroke:#000000;stroke-linecap:square;stroke-width:1.5;"/>
   </g>
   <g id="line2d_38">
    <path clip-path="url(#p1b6f5bad46)" d="M 61.75625 273.02 
L 1066.15625 273.02 
" style="fill:none;stroke:#000000;stroke-linecap:square;stroke-width:1.5;"/>
   </g>
   <g id="line2d_39">
    <path clip-path="url(#p1b6f5bad46)" d="M 61.75625 45.05871 
L 74.31125 50.72 
L 86.86625 56.689388 
L 99.42125 62.992727 
L 111.97625 69.658849 
L 124.53125 76.72 
L 137.08625 84.212366 
L 149.64125 92.176693 
L 162.19625 100.659024 
L 174.75125 109.711597 
L 187.30625 119.393913 
L 199.86125 129.774054 
L 212.41625 140.93028 
L 224.97125 152.95301 
L 237.52625 165.947273 
L 250.08125 180.035789 
L 262.63625 195.362857 
L 275.19125 212.09931 
L 287.74625 230.448916 
L 300.30125 250.656709 
L 312.85625 273.02 
L 325.41125 295.383291 
L 337.96625 315.591084 
L 350.52125 333.94069 
L 363.07625 350.677143 
L 375.63125 366.004211 
L 388.18625 380.092727 
L 400.74125 393.08699 
L 413.29625 405.10972 
L 425.85125 416.265946 
L 438.40625 426.646087 
L 450.96125 436.328403 
L 463.51625 445.380976 
L 476.07125 453.863307 
L 488.62625 461.827634 
L 501.18125 469.32 
L 513.73625 476.381151 
L 526.29125 483.047273 
L 538.84625 489.350612 
L 551.40125 495.32 
L 563.95625 500.98129 
L 576.51125 506.357736 
L 589.06625 511.470307 
L 601.62125 516.337964 
L 614.17625 520.977895 
L 626.73125 525.405714 
L 639.28625 529.635642 
L 651.84125 533.680656 
L 664.39625 537.55262 
L 676.95125 541.262408 
L 689.50625 544.82 
L 702.06125 548.234573 
L 714.61625 551.514581 
L 727.17125 554.667826 
L 739.72625 557.701517 
L 752.28125 560.622326 
L 764.83625 563.436438 
L 777.39125 566.149596 
L 789.94625 568.767137 
L 802.50125 571.294026 
L 815.05625 573.734894 
L 827.61125 576.094059 
L 840.16625 578.375556 
L 852.72125 580.583158 
L 865.27625 582.720398 
L 877.83125 584.790588 
L 890.38625 586.796834 
L 902.94125 588.742053 
L 915.49625 590.628989 
L 928.05125 592.460221 
L 940.60625 594.238182 
L 953.16125 595.965161 
L 965.71625 597.643322 
L 978.27125 599.274704 
L 990.82625 600.861237 
L 1003.38125 602.404746 
L 1015.93625 603.906957 
L 1028.49125 605.369505 
L 1041.04625 606.793941 
L 1053.60125 608.181736 
L 1066.15625 609.534286 
" style="fill:none;stroke:#ff0000;stroke-linecap:square;stroke-width:1.5;"/>
    <defs>
     <path d="M 0 2.5 
C 0.663008 2.5 1.29895 2.236584 1.767767 1.767767 
C 2.236584 1.29895 2.5 0.663008 2.5 0 
C 2.5 -0.663008 2.236584 -1.29895 1.767767 -1.767767 
C 1.29895 -2.236584 0.663008 -2.5 0 -2.5 
C -0.663008 -2.5 -1.29895 -2.236584 -1.767767 -1.767767 
C -2.236584 -1.29895 -2.5 -0.663008 -2.5 0 
C -2.5 0.663008 -2.236584 1.29895 -1.767767 1.767767 
C -1.29895 2.236584 -0.663008 2.5 0 2.5 
z
" id="m6a71152552" style="stroke:#ff0000;"/>
    </defs>
    <g clip-path="url(#p1b6f5bad46)">
     <use style="fill:#ff0000;stroke:#ff0000;" x="61.75625" xlink:href="#m6a71152552" y="45.05871"/>
     <use style="fill:#ff0000;stroke:#ff0000;" x="124.53125" xlink:href="#m6a71152552" y="76.72"/>
     <use style="fill:#ff0000;stroke:#ff0000;" x="187.30625" xlink:href="#m6a71152552" y="119.393913"/>
     <use style="fill:#ff0000;stroke:#ff0000;" x="250.08125" xlink:href="#m6a71152552" y="180.035789"/>
     <use style="fill:#ff0000;stroke:#ff0000;" x="312.85625" xlink:href="#m6a71152552" y="273.02"/>
     <use style="fill:#ff0000;stroke:#ff0000;" x="375.63125" xlink:href="#m6a71152552" y="366.004211"/>
     <use style="fill:#ff0000;stroke:#ff0000;" x="438.40625" xlink:href="#m6a71152552" y="426.646087"/>
     <use style="fill:#ff0000;stroke:#ff0000;" x="501.18125" xlink:href="#m6a71152552" y="469.32"/>
     <use style="fill:#ff0000;stroke:#ff0000;" x="563.95625" xlink:href="#m6a71152552" y="500.98129"/>
     <use style="fill:#ff0000;stroke:#ff0000;" x="626.73125" xlink:href="#m6a71152552" y="525.405714"/>
     <use style="fill:#ff0000;stroke:#ff0000;" x="689.50625" xlink:href="#m6a71152552" y="544.82"/>
     <use style="fill:#ff0000;stroke:#ff0000;" x="752.28125" xlink:href="#m6a71152552" y="560.622326"/>
     <use style="fill:#ff0000;stroke:#ff0000;" x="815.05625" xlink:href="#m6a71152552" y="573.734894"/>
     <use style="fill:#ff0000;stroke:#ff0000;" x="877.83125" xlink:href="#m6a71152552" y="584.790588"/>
     <use style="fill:#ff0000;stroke:#ff0000;" x="940.60625" xlink:href="#m6a71152552" y="594.238182"/>
     <use style="fill:#ff0000;stroke:#ff0000;" x="1003.38125" xlink:href="#m6a71152552" y="602.404746"/>
     <use style="fill:#ff0000;stroke:#ff0000;" x="1066.15625" xlink:href="#m6a71152552" y="609.534286"/>
    </g>
   </g>
   <g id="line2d_40">
    <path clip-path="url(#p1b6f5bad46)" d="M 61.75625 50.638182 
L 74.31125 55.834019 
L 86.86625 61.329615 
L 99.42125 67.151683 
L 111.97625 73.330204 
L 124.53125 79.898947 
L 137.08625 86.896087 
L 149.64125 94.364944 
L 162.19625 102.354884 
L 174.75125 110.92241 
L 187.30625 120.1325 
L 199.86125 130.06026 
L 212.41625 140.792973 
L 224.97125 152.432676 
L 237.52625 165.099412 
L 250.08125 178.935385 
L 262.63625 194.110323 
L 275.19125 210.828475 
L 287.74625 229.337857 
L 300.30125 249.942642 
L 312.85625 273.02 
L 325.41125 296.097358 
L 337.96625 316.702143 
L 350.52125 335.211525 
L 363.07625 351.929677 
L 375.63125 367.104615 
L 388.18625 380.940588 
L 400.74125 393.607324 
L 413.29625 405.247027 
L 425.85125 415.97974 
L 438.40625 425.9075 
L 450.96125 435.11759 
L 463.51625 443.685116 
L 476.07125 451.675056 
L 488.62625 459.143913 
L 501.18125 466.141053 
L 513.73625 472.709796 
L 526.29125 478.888317 
L 538.84625 484.710385 
L 551.40125 490.205981 
L 563.95625 495.401818 
L 576.51125 500.32177 
L 589.06625 504.987241 
L 601.62125 509.417479 
L 614.17625 513.629836 
L 626.73125 517.64 
L 639.28625 521.462188 
L 651.84125 525.109313 
L 664.39625 528.593134 
L 676.95125 531.92438 
L 689.50625 535.112857 
L 702.06125 538.167552 
L 714.61625 541.096712 
L 727.17125 543.907919 
L 739.72625 546.608158 
L 752.28125 549.203871 
L 764.83625 551.701013 
L 777.39125 554.105093 
L 789.94625 556.42122 
L 802.50125 558.654132 
L 815.05625 560.808235 
L 827.61125 562.88763 
L 840.16625 564.896136 
L 852.72125 566.837318 
L 865.27625 568.714505 
L 877.83125 570.530811 
L 890.38625 572.289149 
L 902.94125 573.992251 
L 915.49625 575.64268 
L 928.05125 577.242843 
L 940.60625 578.795 
L 953.16125 580.301281 
L 965.71625 581.763689 
L 978.27125 583.184115 
L 990.82625 584.56434 
L 1003.38125 585.906047 
L 1015.93625 587.210826 
L 1028.49125 588.480181 
L 1041.04625 589.715536 
L 1053.60125 590.918238 
L 1066.15625 592.089565 
" style="fill:none;stroke:#0000ff;stroke-dasharray:9.6,2.4,1.5,2.4;stroke-dashoffset:0;stroke-width:1.5;"/>
    <defs>
     <path d="M 0 2.5 
C 0.663008 2.5 1.29895 2.236584 1.767767 1.767767 
C 2.236584 1.29895 2.5 0.663008 2.5 0 
C 2.5 -0.663008 2.236584 -1.29895 1.767767 -1.767767 
C 1.29895 -2.236584 0.663008 -2.5 0 -2.5 
C -0.663008 -2.5 -1.29895 -2.236584 -1.767767 -1.767767 
C -2.236584 -1.29895 -2.5 -0.663008 -2.5 0 
C -2.5 0.663008 -2.236584 1.29895 -1.767767 1.767767 
C -1.29895 2.236584 -0.663008 2.5 0 2.5 
z
" id="md8de752c97" style="stroke:#0000ff;"/>
    </defs>
    <g clip-path="url(#p1b6f5bad46)">
     <use style="fill:#0000ff;stroke:#0000ff;" x="61.75625" xlink:href="#md8de752c97" y="50.638182"/>
     <use style="fill:#0000ff;stroke:#0000ff;" x="124.53125" xlink:href="#md8de752c97" y="79.898947"/>
     <use style="fill:#0000ff;stroke:#0000ff;" x="187.30625" xlink:href="#md8de752c97" y="120.1325"/>
     <use style="fill:#0000ff;stroke:#0000ff;" x="250.08125" xlink:href="#md8de752c97" y="178.935385"/>
     <use style="fill:#0000ff;stroke:#0000ff;" x="312.85625" xlink:href="#md8de752c97" y="273.02"/>
     <use style="fill:#0000ff;stroke:#0000ff;" x="375.63125" xlink:href="#md8de752c97" y="367.104615"/>
     <use style="fill:#0000ff;stroke:#0000ff;" x="438.40625" xlink:href="#md8de752c97" y="425.9075"/>
     <use style="fill:#0000ff;stroke:#0000ff;" x="501.18125" xlink:href="#md8de752c97" y="466.141053"/>
     <use style="fill:#0000ff;stroke:#0000ff;" x="563.95625" xlink:href="#md8de752c97" y="495.401818"/>
     <use style="fill:#0000ff;stroke:#0000ff;" x="626.73125" xlink:href="#md8de752c97" y="517.64"/>
     <use style="fill:#0000ff;stroke:#0000ff;" x="689.50625" xlink:href="#md8de752c97" y="535.112857"/>
     <use style="fill:#0000ff;stroke:#0000ff;" x="752.28125" xlink:href="#md8de752c97" y="549.203871"/>
     <use style="fill:#0000ff;stroke:#0000ff;" x="815.05625" xlink:href="#md8de752c97" y="560.808235"/>
     <use style="fill:#0000ff;stroke:#0000ff;" x="877.83125" xlink:href="#md8de752c97" y="570.530811"/>
     <use style="fill:#0000ff;stroke:#0000ff;" x="940.60625" xlink:href="#md8de752c97" y="578.795"/>
     <use style="fill:#0000ff;stroke:#0000ff;" x="1003.38125" xlink:href="#md8de752c97" y="585.906047"/>
     <use style="fill:#0000ff;stroke:#0000ff;" x="1066.15625" xlink:href="#md8de752c97" y="592.089565"/>
    </g>
   </g>
   <g id="patch_3">
    <path d="M 61.75625 680.72 
L 61.75625 28.4 
" style="fill:none;stroke:#000000;stroke-linecap:square;stroke-linejoin:miter;stroke-width:0.8;"/>
   </g>
   <g id="patch_4">
    <path d="M 1066.15625 680.72 
L 1066.15625 28.4 
" style="fill:none;stroke:#000000;stroke-linecap:square;stroke-linejoin:miter;stroke-width:0.8;"/>
   </g>
   <g id="patch_5">
    <path d="M 61.75625 680.72 
L 1066.15625 680.72 
" style="fill:none;stroke:#000000;stroke-linecap:square;stroke-linejoin:miter;stroke-width:0.8;"/>
   </g>
   <g id="patch_6">
    <path d="M 61.75625 28.4 
L 1066.15625 28.4 
" style="fill:none;stroke:#000000;stroke-linecap:square;stroke-linejoin:miter;stroke-width:0.8;"/>
   </g>
   <g id="patch_7">
    <path d="M 1005.38125 438.095699 
Q 1005.38125 471.869499 1005.38125 505.643298 
L 1009.38125 505.643298 
Q 1006.38125 511.641649 1003.38125 517.64 
Q 1000.38125 511.641649 997.38125 505.643298 
L 1001.38125 505.643298 
Q 1001.38125 471.869499 1001.38125 438.095699 
L 1005.38125 438.095699 
z
" style="fill:#ffa500;stroke:#800080;stroke-linecap:round;"/>
   </g>
   <g id="text_21">
    <!-- Late game TB -->
    <defs>
     <path d="M 9.8125 72.90625 
L 19.671875 72.90625 
L 19.671875 8.296875 
L 55.171875 8.296875 
L 55.171875 0 
L 9.8125 0 
z
" id="DejaVuSans-4c"/>
     <path d="M -0.296875 72.90625 
L 61.375 72.90625 
L 61.375 64.59375 
L 35.5 64.59375 
L 35.5 0 
L 25.59375 0 
L 25.59375 64.59375 
L -0.296875 64.59375 
z
" id="DejaVuSans-54"/>
     <path d="M 19.671875 34.8125 
L 19.671875 8.109375 
L 35.5 8.109375 
Q 43.453125 8.109375 47.28125 11.40625 
Q 51.125 14.703125 51.125 21.484375 
Q 51.125 28.328125 47.28125 31.5625 
Q 43.453125 34.8125 35.5 34.8125 
z
M 19.671875 64.796875 
L 19.671875 42.828125 
L 34.28125 42.828125 
Q 41.5 42.828125 45.03125 45.53125 
Q 48.578125 48.25 48.578125 53.8125 
Q 48.578125 59.328125 45.03125 62.0625 
Q 41.5 64.796875 34.28125 64.796875 
z
M 9.8125 72.90625 
L 35.015625 72.90625 
Q 46.296875 72.90625 52.390625 68.21875 
Q 58.5 63.53125 58.5 54.890625 
Q 58.5 48.1875 55.375 44.234375 
Q 52.25 40.28125 46.1875 39.3125 
Q 53.46875 37.75 57.5 32.78125 
Q 61.53125 27.828125 61.53125 20.40625 
Q 61.53125 10.640625 54.890625 5.3125 
Q 48.25 0 35.984375 0 
L 9.8125 0 
z
" id="DejaVuSans-42"/>
    </defs>
    <g transform="translate(864.44375 431.940625)scale(0.2 -0.2)">
     <use xlink:href="#DejaVuSans-4c"/>
     <use x="55.712891" xlink:href="#DejaVuSans-61"/>
     <use x="116.992188" xlink:href="#DejaVuSans-74"/>
     <use x="156.201172" xlink:href="#DejaVuSans-65"/>
     <use x="217.724609" xlink:href="#DejaVuSans-20"/>
     <use x="249.511719" xlink:href="#DejaVuSans-67"/>
     <use x="312.988281" xlink:href="#DejaVuSans-61"/>
     <use x="374.267578" xlink:href="#DejaVuSans-6d"/>
     <use x="471.679688" xlink:href="#DejaVuSans-65"/>
     <use x="533.203125" xlink:href="#DejaVuSans-20"/>
     <use x="564.990234" xlink:href="#DejaVuSans-54"/>
     <use x="626.074219" xlink:href="#DejaVuSans-42"/>
    </g>
   </g>
   <g id="text_22">
    <!-- Armor Changes 7.19 $\Rightarrow$ 7.20 -->
    <defs>
     <path d="M 64.40625 67.28125 
L 64.40625 56.890625 
Q 59.421875 61.53125 53.78125 63.8125 
Q 48.140625 66.109375 41.796875 66.109375 
Q 29.296875 66.109375 22.65625 58.46875 
Q 16.015625 50.828125 16.015625 36.375 
Q 16.015625 21.96875 22.65625 14.328125 
Q 29.296875 6.6875 41.796875 6.6875 
Q 48.140625 6.6875 53.78125 8.984375 
Q 59.421875 11.28125 64.40625 15.921875 
L 64.40625 5.609375 
Q 59.234375 2.09375 53.4375 0.328125 
Q 47.65625 -1.421875 41.21875 -1.421875 
Q 24.65625 -1.421875 15.125 8.703125 
Q 5.609375 18.84375 5.609375 36.375 
Q 5.609375 53.953125 15.125 64.078125 
Q 24.65625 74.21875 41.21875 74.21875 
Q 47.75 74.21875 53.53125 72.484375 
Q 59.328125 70.75 64.40625 67.28125 
z
" id="DejaVuSans-43"/>
     <path d="M 54.890625 33.015625 
L 54.890625 0 
L 45.90625 0 
L 45.90625 32.71875 
Q 45.90625 40.484375 42.875 44.328125 
Q 39.84375 48.1875 33.796875 48.1875 
Q 26.515625 48.1875 22.3125 43.546875 
Q 18.109375 38.921875 18.109375 30.90625 
L 18.109375 0 
L 9.078125 0 
L 9.078125 75.984375 
L 18.109375 75.984375 
L 18.109375 46.1875 
Q 21.34375 51.125 25.703125 53.5625 
Q 30.078125 56 35.796875 56 
Q 45.21875 56 50.046875 50.171875 
Q 54.890625 44.34375 54.890625 33.015625 
z
" id="DejaVuSans-68"/>
     <path d="M 54.890625 33.015625 
L 54.890625 0 
L 45.90625 0 
L 45.90625 32.71875 
Q 45.90625 40.484375 42.875 44.328125 
Q 39.84375 48.1875 33.796875 48.1875 
Q 26.515625 48.1875 22.3125 43.546875 
Q 18.109375 38.921875 18.109375 30.90625 
L 18.109375 0 
L 9.078125 0 
L 9.078125 54.6875 
L 18.109375 54.6875 
L 18.109375 46.1875 
Q 21.34375 51.125 25.703125 53.5625 
Q 30.078125 56 35.796875 56 
Q 45.21875 56 50.046875 50.171875 
Q 54.890625 44.34375 54.890625 33.015625 
z
" id="DejaVuSans-6e"/>
     <path d="M 44.28125 53.078125 
L 44.28125 44.578125 
Q 40.484375 46.53125 36.375 47.5 
Q 32.28125 48.484375 27.875 48.484375 
Q 21.1875 48.484375 17.84375 46.4375 
Q 14.5 44.390625 14.5 40.28125 
Q 14.5 37.15625 16.890625 35.375 
Q 19.28125 33.59375 26.515625 31.984375 
L 29.59375 31.296875 
Q 39.15625 29.25 43.1875 25.515625 
Q 47.21875 21.78125 47.21875 15.09375 
Q 47.21875 7.46875 41.1875 3.015625 
Q 35.15625 -1.421875 24.609375 -1.421875 
Q 20.21875 -1.421875 15.453125 -0.5625 
Q 10.6875 0.296875 5.421875 2 
L 5.421875 11.28125 
Q 10.40625 8.6875 15.234375 7.390625 
Q 20.0625 6.109375 24.8125 6.109375 
Q 31.15625 6.109375 34.5625 8.28125 
Q 37.984375 10.453125 37.984375 14.40625 
Q 37.984375 18.0625 35.515625 20.015625 
Q 33.0625 21.96875 24.703125 23.78125 
L 21.578125 24.515625 
Q 13.234375 26.265625 9.515625 29.90625 
Q 5.8125 33.546875 5.8125 39.890625 
Q 5.8125 47.609375 11.28125 51.796875 
Q 16.75 56 26.8125 56 
Q 31.78125 56 36.171875 55.265625 
Q 40.578125 54.546875 44.28125 53.078125 
z
" id="DejaVuSans-73"/>
     <path d="M 8.203125 72.90625 
L 55.078125 72.90625 
L 55.078125 68.703125 
L 28.609375 0 
L 18.3125 0 
L 43.21875 64.59375 
L 8.203125 64.59375 
z
" id="DejaVuSans-37"/>
     <path d="M 10.984375 1.515625 
L 10.984375 10.5 
Q 14.703125 8.734375 18.5 7.8125 
Q 22.3125 6.890625 25.984375 6.890625 
Q 35.75 6.890625 40.890625 13.453125 
Q 46.046875 20.015625 46.78125 33.40625 
Q 43.953125 29.203125 39.59375 26.953125 
Q 35.25 24.703125 29.984375 24.703125 
Q 19.046875 24.703125 12.671875 31.3125 
Q 6.296875 37.9375 6.296875 49.421875 
Q 6.296875 60.640625 12.9375 67.421875 
Q 19.578125 74.21875 30.609375 74.21875 
Q 43.265625 74.21875 49.921875 64.515625 
Q 56.59375 54.828125 56.59375 36.375 
Q 56.59375 19.140625 48.40625 8.859375 
Q 40.234375 -1.421875 26.421875 -1.421875 
Q 22.703125 -1.421875 18.890625 -0.6875 
Q 15.09375 0.046875 10.984375 1.515625 
z
M 30.609375 32.421875 
Q 37.25 32.421875 41.125 36.953125 
Q 45.015625 41.5 45.015625 49.421875 
Q 45.015625 57.28125 41.125 61.84375 
Q 37.25 66.40625 30.609375 66.40625 
Q 23.96875 66.40625 20.09375 61.84375 
Q 16.21875 57.28125 16.21875 49.421875 
Q 16.21875 41.5 20.09375 36.953125 
Q 23.96875 32.421875 30.609375 32.421875 
z
" id="DejaVuSans-39"/>
     <path d="M 64.265625 26.21875 
L 69.390625 31.34375 
L 64.265625 36.46875 
L 5.71875 36.46875 
L 5.71875 42.328125 
L 58.40625 42.328125 
L 53.859375 46.875 
L 59.71875 52.734375 
L 78.90625 33.546875 
L 78.90625 29.15625 
L 59.71875 9.96875 
L 53.859375 15.828125 
L 58.40625 20.359375 
L 5.71875 20.359375 
L 5.71875 26.21875 
z
" id="DejaVuSans-21d2"/>
    </defs>
    <g transform="translate(419.95625 22.4)scale(0.2 -0.2)">
     <use transform="translate(0 0.015625)" xlink:href="#DejaVuSans-41"/>
     <use transform="translate(68.408203 0.015625)" xlink:href="#DejaVuSans-72"/>
     <use transform="translate(109.521484 0.015625)" xlink:href="#DejaVuSans-6d"/>
     <use transform="translate(206.933594 0.015625)" xlink:href="#DejaVuSans-6f"/>
     <use transform="translate(268.115234 0.015625)" xlink:href="#DejaVuSans-72"/>
     <use transform="translate(309.228516 0.015625)" xlink:href="#DejaVuSans-20"/>
     <use transform="translate(341.015625 0.015625)" xlink:href="#DejaVuSans-43"/>
     <use transform="translate(410.839844 0.015625)" xlink:href="#DejaVuSans-68"/>
     <use transform="translate(474.21875 0.015625)" xlink:href="#DejaVuSans-61"/>
     <use transform="translate(535.498047 0.015625)" xlink:href="#DejaVuSans-6e"/>
     <use transform="translate(598.876953 0.015625)" xlink:href="#DejaVuSans-67"/>
     <use transform="translate(662.353516 0.015625)" xlink:href="#DejaVuSans-65"/>
     <use transform="translate(723.876953 0.015625)" xlink:href="#DejaVuSans-73"/>
     <use transform="translate(775.976562 0.015625)" xlink:href="#DejaVuSans-20"/>
     <use transform="translate(807.763672 0.015625)" xlink:href="#DejaVuSans-37"/>
     <use transform="translate(871.386719 0.015625)" xlink:href="#DejaVuSans-2e"/>
     <use transform="translate(903.173828 0.015625)" xlink:href="#DejaVuSans-31"/>
     <use transform="translate(966.796875 0.015625)" xlink:href="#DejaVuSans-39"/>
     <use transform="translate(1030.419922 0.015625)" xlink:href="#DejaVuSans-20"/>
     <use transform="translate(1081.689453 0.015625)" xlink:href="#DejaVuSans-21d2"/>
     <use transform="translate(1184.960938 0.015625)" xlink:href="#DejaVuSans-20"/>
     <use transform="translate(1216.748047 0.015625)" xlink:href="#DejaVuSans-37"/>
     <use transform="translate(1280.371094 0.015625)" xlink:href="#DejaVuSans-2e"/>
     <use transform="translate(1312.080078 0.015625)" xlink:href="#DejaVuSans-32"/>
     <use transform="translate(1375.703125 0.015625)" xlink:href="#DejaVuSans-30"/>
    </g>
   </g>
   <g id="legend_1">
    <g id="patch_8">
     <path d="M 825.69625 118.6 
L 1055.55625 118.6 
Q 1059.15625 118.6 1059.15625 115 
L 1059.15625 43 
Q 1059.15625 39.4 1055.55625 39.4 
L 825.69625 39.4 
Q 822.09625 39.4 822.09625 43 
L 822.09625 115 
Q 822.09625 118.6 825.69625 118.6 
z
" style="fill:#4c4c4c;opacity:0.5;stroke:#4c4c4c;stroke-linejoin:miter;"/>
    </g>
    <g id="patch_9">
     <path d="M 823.69625 116.6 
L 1053.55625 116.6 
Q 1057.15625 116.6 1057.15625 113 
L 1057.15625 41 
Q 1057.15625 37.4 1053.55625 37.4 
L 823.69625 37.4 
Q 820.09625 37.4 820.09625 41 
L 820.09625 113 
Q 820.09625 116.6 823.69625 116.6 
z
" style="fill:#ffffff;stroke:#cccccc;stroke-linejoin:miter;"/>
    </g>
    <g id="line2d_41">
     <path d="M 827.29625 55.76 
L 863.29625 55.76 
" style="fill:none;stroke:#ff0000;stroke-linecap:square;stroke-width:1.5;"/>
    </g>
    <g id="line2d_42">
     <g>
      <use style="fill:#ff0000;stroke:#ff0000;" x="845.29625" xlink:href="#m6a71152552" y="55.76"/>
     </g>
    </g>
    <g id="text_23">
     <!-- 7.20: $\frac{0.052 armor}{0.9+0.048|armor|}$ -->
     <defs>
      <path d="M 11.71875 12.40625 
L 22.015625 12.40625 
L 22.015625 0 
L 11.71875 0 
z
M 11.71875 51.703125 
L 22.015625 51.703125 
L 22.015625 39.3125 
L 11.71875 39.3125 
z
" id="DejaVuSans-3a"/>
      <path d="M 53.71875 31.203125 
L 47.609375 0 
L 38.625 0 
L 40.28125 8.296875 
Q 36.328125 3.421875 31.265625 1 
Q 26.21875 -1.421875 20.015625 -1.421875 
Q 13.03125 -1.421875 8.5625 2.84375 
Q 4.109375 7.125 4.109375 13.8125 
Q 4.109375 23.390625 11.75 28.953125 
Q 19.390625 34.515625 32.8125 34.515625 
L 45.3125 34.515625 
L 45.796875 36.921875 
Q 45.90625 37.3125 45.953125 37.765625 
Q 46 38.234375 46 39.203125 
Q 46 43.5625 42.453125 45.96875 
Q 38.921875 48.390625 32.515625 48.390625 
Q 28.125 48.390625 23.5 47.265625 
Q 18.890625 46.140625 14.015625 43.890625 
L 15.578125 52.203125 
Q 20.65625 54.109375 25.515625 55.046875 
Q 30.375 56 34.90625 56 
Q 44.578125 56 49.625 51.796875 
Q 54.6875 47.609375 54.6875 39.59375 
Q 54.6875 37.984375 54.4375 35.8125 
Q 54.203125 33.640625 53.71875 31.203125 
z
M 44 27.484375 
L 35.015625 27.484375 
Q 23.96875 27.484375 18.671875 24.53125 
Q 13.375 21.578125 13.375 15.375 
Q 13.375 11.078125 16.078125 8.640625 
Q 18.796875 6.203125 23.578125 6.203125 
Q 30.90625 6.203125 36.375 11.453125 
Q 41.84375 16.703125 43.609375 25.484375 
z
" id="DejaVuSans-Oblique-61"/>
      <path d="M 44.578125 46.390625 
Q 43.21875 47.125 41.453125 47.515625 
Q 39.703125 47.90625 37.703125 47.90625 
Q 30.515625 47.90625 25.140625 42.453125 
Q 19.78125 37.015625 18.015625 27.875 
L 12.5 0 
L 3.515625 0 
L 14.203125 54.6875 
L 23.1875 54.6875 
L 21.484375 46.1875 
Q 25.046875 50.921875 30 53.453125 
Q 34.96875 56 40.578125 56 
Q 42.046875 56 43.453125 55.828125 
Q 44.875 55.671875 46.296875 55.28125 
z
" id="DejaVuSans-Oblique-72"/>
      <path d="M 89.796875 33.015625 
L 83.40625 0 
L 74.421875 0 
L 80.71875 32.71875 
Q 81.109375 34.8125 81.296875 36.328125 
Q 81.5 37.84375 81.5 38.921875 
Q 81.5 43.3125 79.046875 45.75 
Q 76.609375 48.1875 72.21875 48.1875 
Q 65.671875 48.1875 60.546875 43.28125 
Q 55.421875 38.375 53.90625 30.515625 
L 47.90625 0 
L 38.921875 0 
L 45.3125 32.71875 
Q 45.703125 34.515625 45.890625 36.046875 
Q 46.09375 37.59375 46.09375 38.8125 
Q 46.09375 43.265625 43.65625 45.71875 
Q 41.21875 48.1875 36.921875 48.1875 
Q 30.28125 48.1875 25.140625 43.28125 
Q 20.015625 38.375 18.5 30.515625 
L 12.5 0 
L 3.515625 0 
L 14.203125 54.6875 
L 23.1875 54.6875 
L 21.484375 46.1875 
Q 25.140625 50.984375 30.046875 53.484375 
Q 34.96875 56 40.578125 56 
Q 46.53125 56 50.359375 52.875 
Q 54.203125 49.75 54.984375 44.1875 
Q 59.078125 49.953125 64.46875 52.96875 
Q 69.875 56 75.875 56 
Q 82.90625 56 86.734375 51.953125 
Q 90.578125 47.90625 90.578125 40.484375 
Q 90.578125 38.875 90.375 36.9375 
Q 90.1875 35.015625 89.796875 33.015625 
z
" id="DejaVuSans-Oblique-6d"/>
      <path d="M 25.390625 -1.421875 
Q 15.765625 -1.421875 10.171875 4.515625 
Q 4.59375 10.453125 4.59375 20.703125 
Q 4.59375 26.65625 6.515625 32.828125 
Q 8.453125 39.015625 11.53125 43.21875 
Q 16.359375 49.75 22.3125 52.875 
Q 28.265625 56 35.796875 56 
Q 45.125 56 50.859375 50.1875 
Q 56.59375 44.390625 56.59375 35.015625 
Q 56.59375 28.515625 54.6875 22.0625 
Q 52.78125 15.625 49.703125 11.375 
Q 44.921875 4.828125 38.96875 1.703125 
Q 33.015625 -1.421875 25.390625 -1.421875 
z
M 13.921875 21 
Q 13.921875 13.578125 17.015625 9.890625 
Q 20.125 6.203125 26.421875 6.203125 
Q 35.453125 6.203125 41.375 14.078125 
Q 47.3125 21.96875 47.3125 34.078125 
Q 47.3125 41.15625 44.140625 44.765625 
Q 40.96875 48.390625 34.8125 48.390625 
Q 29.734375 48.390625 25.78125 46.015625 
Q 21.828125 43.65625 18.703125 38.8125 
Q 16.40625 35.203125 15.15625 30.5625 
Q 13.921875 25.921875 13.921875 21 
z
" id="DejaVuSans-Oblique-6f"/>
      <path d="M 46 62.703125 
L 46 35.5 
L 73.1875 35.5 
L 73.1875 27.203125 
L 46 27.203125 
L 46 0 
L 37.796875 0 
L 37.796875 27.203125 
L 10.59375 27.203125 
L 10.59375 35.5 
L 37.796875 35.5 
L 37.796875 62.703125 
z
" id="DejaVuSans-2b"/>
      <path d="M 21 76.421875 
L 21 -23.578125 
L 12.703125 -23.578125 
L 12.703125 76.421875 
z
" id="DejaVuSans-7c"/>
     </defs>
     <g transform="translate(877.69625 62.06)scale(0.18 -0.18)">
      <use transform="translate(0 0.254688)" xlink:href="#DejaVuSans-37"/>
      <use transform="translate(63.623047 0.254688)" xlink:href="#DejaVuSans-2e"/>
      <use transform="translate(95.332031 0.254688)" xlink:href="#DejaVuSans-32"/>
      <use transform="translate(158.955078 0.254688)" xlink:href="#DejaVuSans-30"/>
      <use transform="translate(222.578125 0.254688)" xlink:href="#DejaVuSans-3a"/>
      <use transform="translate(256.269531 0.254688)" xlink:href="#DejaVuSans-20"/>
      <use transform="translate(410.056641 45.046875)scale(0.7)" xlink:href="#DejaVuSans-30"/>
      <use transform="translate(454.592773 45.046875)scale(0.7)" xlink:href="#DejaVuSans-2e"/>
      <use transform="translate(476.84375 45.046875)scale(0.7)" xlink:href="#DejaVuSans-30"/>
      <use transform="translate(521.379883 45.046875)scale(0.7)" xlink:href="#DejaVuSans-35"/>
      <use transform="translate(565.916016 45.046875)scale(0.7)" xlink:href="#DejaVuSans-32"/>
      <use transform="translate(610.452148 45.046875)scale(0.7)" xlink:href="#DejaVuSans-Oblique-61"/>
      <use transform="translate(653.347656 45.046875)scale(0.7)" xlink:href="#DejaVuSans-Oblique-72"/>
      <use transform="translate(682.126953 45.046875)scale(0.7)" xlink:href="#DejaVuSans-Oblique-6d"/>
      <use transform="translate(750.31543 45.046875)scale(0.7)" xlink:href="#DejaVuSans-Oblique-6f"/>
      <use transform="translate(793.142578 45.046875)scale(0.7)" xlink:href="#DejaVuSans-Oblique-72"/>
      <use transform="translate(288.056641 -40.69375)scale(0.7)" xlink:href="#DejaVuSans-30"/>
      <use transform="translate(332.592773 -40.69375)scale(0.7)" xlink:href="#DejaVuSans-2e"/>
      <use transform="translate(354.84375 -40.69375)scale(0.7)" xlink:href="#DejaVuSans-39"/>
      <use transform="translate(413.017578 -40.69375)scale(0.7)" xlink:href="#DejaVuSans-2b"/>
      <use transform="translate(485.307617 -40.69375)scale(0.7)" xlink:href="#DejaVuSans-30"/>
      <use transform="translate(529.84375 -40.69375)scale(0.7)" xlink:href="#DejaVuSans-2e"/>
      <use transform="translate(552.094727 -40.69375)scale(0.7)" xlink:href="#DejaVuSans-30"/>
      <use transform="translate(596.630859 -40.69375)scale(0.7)" xlink:href="#DejaVuSans-34"/>
      <use transform="translate(641.166992 -40.69375)scale(0.7)" xlink:href="#DejaVuSans-38"/>
      <use transform="translate(685.703125 -40.69375)scale(0.7)" xlink:href="#DejaVuSans-7c"/>
      <use transform="translate(709.287109 -40.69375)scale(0.7)" xlink:href="#DejaVuSans-Oblique-61"/>
      <use transform="translate(752.182617 -40.69375)scale(0.7)" xlink:href="#DejaVuSans-Oblique-72"/>
      <use transform="translate(780.961914 -40.69375)scale(0.7)" xlink:href="#DejaVuSans-Oblique-6d"/>
      <use transform="translate(849.150391 -40.69375)scale(0.7)" xlink:href="#DejaVuSans-Oblique-6f"/>
      <use transform="translate(891.977539 -40.69375)scale(0.7)" xlink:href="#DejaVuSans-Oblique-72"/>
      <use transform="translate(920.756836 -40.69375)scale(0.7)" xlink:href="#DejaVuSans-7c"/>
      <path d="M 288.056641 19.051563 
L 288.056641 25.301563 
L 944.34082 25.301563 
L 944.34082 19.051563 
L 288.056641 19.051563 
z
"/>
     </g>
    </g>
    <g id="line2d_43">
     <path d="M 827.29625 92.66 
L 863.29625 92.66 
" style="fill:none;stroke:#0000ff;stroke-dasharray:9.6,2.4,1.5,2.4;stroke-dashoffset:0;stroke-width:1.5;"/>
    </g>
    <g id="line2d_44">
     <g>
      <use style="fill:#0000ff;stroke:#0000ff;" x="845.29625" xlink:href="#md8de752c97" y="92.66"/>
     </g>
    </g>
    <g id="text_24">
     <!-- 7.19: $\frac{0.06 armor}{1.0+0.06|armor|}$ -->
     <g transform="translate(877.69625 98.96)scale(0.18 -0.18)">
      <use transform="translate(0 0.254688)" xlink:href="#DejaVuSans-37"/>
      <use transform="translate(63.623047 0.254688)" xlink:href="#DejaVuSans-2e"/>
      <use transform="translate(95.410156 0.254688)" xlink:href="#DejaVuSans-31"/>
      <use transform="translate(159.033203 0.254688)" xlink:href="#DejaVuSans-39"/>
      <use transform="translate(222.65625 0.254688)" xlink:href="#DejaVuSans-3a"/>
      <use transform="translate(256.347656 0.254688)" xlink:href="#DejaVuSans-20"/>
      <use transform="translate(410.134766 45.046875)scale(0.7)" xlink:href="#DejaVuSans-30"/>
      <use transform="translate(454.670898 45.046875)scale(0.7)" xlink:href="#DejaVuSans-2e"/>
      <use transform="translate(476.921875 45.046875)scale(0.7)" xlink:href="#DejaVuSans-30"/>
      <use transform="translate(521.458008 45.046875)scale(0.7)" xlink:href="#DejaVuSans-36"/>
      <use transform="translate(565.994141 45.046875)scale(0.7)" xlink:href="#DejaVuSans-Oblique-61"/>
      <use transform="translate(608.889648 45.046875)scale(0.7)" xlink:href="#DejaVuSans-Oblique-72"/>
      <use transform="translate(637.668945 45.046875)scale(0.7)" xlink:href="#DejaVuSans-Oblique-6d"/>
      <use transform="translate(705.857422 45.046875)scale(0.7)" xlink:href="#DejaVuSans-Oblique-6f"/>
      <use transform="translate(748.68457 45.046875)scale(0.7)" xlink:href="#DejaVuSans-Oblique-72"/>
      <use transform="translate(288.134766 -40.69375)scale(0.7)" xlink:href="#DejaVuSans-31"/>
      <use transform="translate(332.670898 -40.69375)scale(0.7)" xlink:href="#DejaVuSans-2e"/>
      <use transform="translate(354.921875 -40.69375)scale(0.7)" xlink:href="#DejaVuSans-30"/>
      <use transform="translate(413.095703 -40.69375)scale(0.7)" xlink:href="#DejaVuSans-2b"/>
      <use transform="translate(485.385742 -40.69375)scale(0.7)" xlink:href="#DejaVuSans-30"/>
      <use transform="translate(529.921875 -40.69375)scale(0.7)" xlink:href="#DejaVuSans-2e"/>
      <use transform="translate(552.172852 -40.69375)scale(0.7)" xlink:href="#DejaVuSans-30"/>
      <use transform="translate(596.708984 -40.69375)scale(0.7)" xlink:href="#DejaVuSans-36"/>
      <use transform="translate(641.245117 -40.69375)scale(0.7)" xlink:href="#DejaVuSans-7c"/>
      <use transform="translate(664.829102 -40.69375)scale(0.7)" xlink:href="#DejaVuSans-Oblique-61"/>
      <use transform="translate(707.724609 -40.69375)scale(0.7)" xlink:href="#DejaVuSans-Oblique-72"/>
      <use transform="translate(736.503906 -40.69375)scale(0.7)" xlink:href="#DejaVuSans-Oblique-6d"/>
      <use transform="translate(804.692383 -40.69375)scale(0.7)" xlink:href="#DejaVuSans-Oblique-6f"/>
      <use transform="translate(847.519531 -40.69375)scale(0.7)" xlink:href="#DejaVuSans-Oblique-72"/>
      <use transform="translate(876.298828 -40.69375)scale(0.7)" xlink:href="#DejaVuSans-7c"/>
      <path d="M 288.134766 19.051563 
L 288.134766 25.301563 
L 899.882812 25.301563 
L 899.882812 19.051563 
L 288.134766 19.051563 
z
"/>
     </g>
    </g>
   </g>
  </g>
  <g id="axes_2">
   <g id="matplotlib.axis_3">
    <g id="ytick_10">
     <g id="line2d_45">
      <defs>
       <path d="M 0 0 
L 3.5 0 
" id="me26ab5810e" style="stroke:#008000;stroke-width:0.8;"/>
      </defs>
      <g>
       <use style="fill:#008000;stroke:#008000;stroke-width:0.8;" x="1066.15625" xlink:href="#me26ab5810e" y="680.72"/>
      </g>
     </g>
     <g id="text_25">
      <!-- -6.0% -->
      <defs>
       <path d="M 4.890625 31.390625 
L 31.203125 31.390625 
L 31.203125 23.390625 
L 4.890625 23.390625 
z
" id="DejaVuSans-2d"/>
       <path d="M 72.703125 32.078125 
Q 68.453125 32.078125 66.03125 28.46875 
Q 63.625 24.859375 63.625 18.40625 
Q 63.625 12.0625 66.03125 8.421875 
Q 68.453125 4.78125 72.703125 4.78125 
Q 76.859375 4.78125 79.265625 8.421875 
Q 81.6875 12.0625 81.6875 18.40625 
Q 81.6875 24.8125 79.265625 28.4375 
Q 76.859375 32.078125 72.703125 32.078125 
z
M 72.703125 38.28125 
Q 80.421875 38.28125 84.953125 32.90625 
Q 89.5 27.546875 89.5 18.40625 
Q 89.5 9.28125 84.9375 3.921875 
Q 80.375 -1.421875 72.703125 -1.421875 
Q 64.890625 -1.421875 60.34375 3.921875 
Q 55.8125 9.28125 55.8125 18.40625 
Q 55.8125 27.59375 60.375 32.9375 
Q 64.9375 38.28125 72.703125 38.28125 
z
M 22.3125 68.015625 
Q 18.109375 68.015625 15.6875 64.375 
Q 13.28125 60.75 13.28125 54.390625 
Q 13.28125 47.953125 15.671875 44.328125 
Q 18.0625 40.71875 22.3125 40.71875 
Q 26.5625 40.71875 28.96875 44.328125 
Q 31.390625 47.953125 31.390625 54.390625 
Q 31.390625 60.6875 28.953125 64.34375 
Q 26.515625 68.015625 22.3125 68.015625 
z
M 66.40625 74.21875 
L 74.21875 74.21875 
L 28.609375 -1.421875 
L 20.796875 -1.421875 
z
M 22.3125 74.21875 
Q 30.03125 74.21875 34.609375 68.875 
Q 39.203125 63.53125 39.203125 54.390625 
Q 39.203125 45.171875 34.640625 39.84375 
Q 30.078125 34.515625 22.3125 34.515625 
Q 14.546875 34.515625 10.03125 39.859375 
Q 5.515625 45.21875 5.515625 54.390625 
Q 5.515625 63.484375 10.046875 68.84375 
Q 14.59375 74.21875 22.3125 74.21875 
z
" id="DejaVuSans-25"/>
      </defs>
      <g style="fill:#008000;" transform="translate(1073.15625 686.038906)scale(0.14 -0.14)">
       <use xlink:href="#DejaVuSans-2d"/>
       <use x="36.083984" xlink:href="#DejaVuSans-36"/>
       <use x="99.707031" xlink:href="#DejaVuSans-2e"/>
       <use x="131.494141" xlink:href="#DejaVuSans-30"/>
       <use x="195.117188" xlink:href="#DejaVuSans-25"/>
      </g>
     </g>
    </g>
    <g id="ytick_11">
     <g id="line2d_46">
      <g>
       <use style="fill:#008000;stroke:#008000;stroke-width:0.8;" x="1066.15625" xlink:href="#me26ab5810e" y="599.18"/>
      </g>
     </g>
     <g id="text_26">
      <!-- -4.8% -->
      <g style="fill:#008000;" transform="translate(1073.15625 604.498906)scale(0.14 -0.14)">
       <use xlink:href="#DejaVuSans-2d"/>
       <use x="36.083984" xlink:href="#DejaVuSans-34"/>
       <use x="99.707031" xlink:href="#DejaVuSans-2e"/>
       <use x="131.494141" xlink:href="#DejaVuSans-38"/>
       <use x="195.117188" xlink:href="#DejaVuSans-25"/>
      </g>
     </g>
    </g>
    <g id="ytick_12">
     <g id="line2d_47">
      <g>
       <use style="fill:#008000;stroke:#008000;stroke-width:0.8;" x="1066.15625" xlink:href="#me26ab5810e" y="517.64"/>
      </g>
     </g>
     <g id="text_27">
      <!-- -3.6% -->
      <g style="fill:#008000;" transform="translate(1073.15625 522.958906)scale(0.14 -0.14)">
       <use xlink:href="#DejaVuSans-2d"/>
       <use x="36.083984" xlink:href="#DejaVuSans-33"/>
       <use x="99.707031" xlink:href="#DejaVuSans-2e"/>
       <use x="131.494141" xlink:href="#DejaVuSans-36"/>
       <use x="195.117188" xlink:href="#DejaVuSans-25"/>
      </g>
     </g>
    </g>
    <g id="ytick_13">
     <g id="line2d_48">
      <g>
       <use style="fill:#008000;stroke:#008000;stroke-width:0.8;" x="1066.15625" xlink:href="#me26ab5810e" y="436.1"/>
      </g>
     </g>
     <g id="text_28">
      <!-- -2.4% -->
      <g style="fill:#008000;" transform="translate(1073.15625 441.418906)scale(0.14 -0.14)">
       <use xlink:href="#DejaVuSans-2d"/>
       <use x="36.083984" xlink:href="#DejaVuSans-32"/>
       <use x="99.707031" xlink:href="#DejaVuSans-2e"/>
       <use x="131.494141" xlink:href="#DejaVuSans-34"/>
       <use x="195.117188" xlink:href="#DejaVuSans-25"/>
      </g>
     </g>
    </g>
    <g id="ytick_14">
     <g id="line2d_49">
      <g>
       <use style="fill:#008000;stroke:#008000;stroke-width:0.8;" x="1066.15625" xlink:href="#me26ab5810e" y="354.56"/>
      </g>
     </g>
     <g id="text_29">
      <!-- -1.2% -->
      <g style="fill:#008000;" transform="translate(1073.15625 359.878906)scale(0.14 -0.14)">
       <use xlink:href="#DejaVuSans-2d"/>
       <use x="36.083984" xlink:href="#DejaVuSans-31"/>
       <use x="99.707031" xlink:href="#DejaVuSans-2e"/>
       <use x="131.494141" xlink:href="#DejaVuSans-32"/>
       <use x="195.117188" xlink:href="#DejaVuSans-25"/>
      </g>
     </g>
    </g>
    <g id="ytick_15">
     <g id="line2d_50">
      <g>
       <use style="fill:#008000;stroke:#008000;stroke-width:0.8;" x="1066.15625" xlink:href="#me26ab5810e" y="273.02"/>
      </g>
     </g>
     <g id="text_30">
      <!-- 0.0% -->
      <g style="fill:#008000;" transform="translate(1073.15625 278.338906)scale(0.14 -0.14)">
       <use xlink:href="#DejaVuSans-30"/>
       <use x="63.623047" xlink:href="#DejaVuSans-2e"/>
       <use x="95.410156" xlink:href="#DejaVuSans-30"/>
       <use x="159.033203" xlink:href="#DejaVuSans-25"/>
      </g>
     </g>
    </g>
    <g id="ytick_16">
     <g id="line2d_51">
      <g>
       <use style="fill:#008000;stroke:#008000;stroke-width:0.8;" x="1066.15625" xlink:href="#me26ab5810e" y="191.48"/>
      </g>
     </g>
     <g id="text_31">
      <!-- 1.2% -->
      <g style="fill:#008000;" transform="translate(1073.15625 196.798906)scale(0.14 -0.14)">
       <use xlink:href="#DejaVuSans-31"/>
       <use x="63.623047" xlink:href="#DejaVuSans-2e"/>
       <use x="95.410156" xlink:href="#DejaVuSans-32"/>
       <use x="159.033203" xlink:href="#DejaVuSans-25"/>
      </g>
     </g>
    </g>
    <g id="ytick_17">
     <g id="line2d_52">
      <g>
       <use style="fill:#008000;stroke:#008000;stroke-width:0.8;" x="1066.15625" xlink:href="#me26ab5810e" y="109.94"/>
      </g>
     </g>
     <g id="text_32">
      <!-- 2.4% -->
      <g style="fill:#008000;" transform="translate(1073.15625 115.258906)scale(0.14 -0.14)">
       <use xlink:href="#DejaVuSans-32"/>
       <use x="63.623047" xlink:href="#DejaVuSans-2e"/>
       <use x="95.410156" xlink:href="#DejaVuSans-34"/>
       <use x="159.033203" xlink:href="#DejaVuSans-25"/>
      </g>
     </g>
    </g>
    <g id="ytick_18">
     <g id="line2d_53">
      <g>
       <use style="fill:#008000;stroke:#008000;stroke-width:0.8;" x="1066.15625" xlink:href="#me26ab5810e" y="28.4"/>
      </g>
     </g>
     <g id="text_33">
      <!-- 3.6% -->
      <g style="fill:#008000;" transform="translate(1073.15625 33.718906)scale(0.14 -0.14)">
       <use xlink:href="#DejaVuSans-33"/>
       <use x="63.623047" xlink:href="#DejaVuSans-2e"/>
       <use x="95.410156" xlink:href="#DejaVuSans-36"/>
       <use x="159.033203" xlink:href="#DejaVuSans-25"/>
      </g>
     </g>
    </g>
    <g id="text_34">
     <!-- Damage Taken % Increase in 7.20 -->
     <defs>
      <path d="M 9.078125 75.984375 
L 18.109375 75.984375 
L 18.109375 31.109375 
L 44.921875 54.6875 
L 56.390625 54.6875 
L 27.390625 29.109375 
L 57.625 0 
L 45.90625 0 
L 18.109375 26.703125 
L 18.109375 0 
L 9.078125 0 
z
" id="DejaVuSans-6b"/>
      <path d="M 9.8125 72.90625 
L 19.671875 72.90625 
L 19.671875 0 
L 9.8125 0 
z
" id="DejaVuSans-49"/>
      <path d="M 48.78125 52.59375 
L 48.78125 44.1875 
Q 44.96875 46.296875 41.140625 47.34375 
Q 37.3125 48.390625 33.40625 48.390625 
Q 24.65625 48.390625 19.8125 42.84375 
Q 14.984375 37.3125 14.984375 27.296875 
Q 14.984375 17.28125 19.8125 11.734375 
Q 24.65625 6.203125 33.40625 6.203125 
Q 37.3125 6.203125 41.140625 7.25 
Q 44.96875 8.296875 48.78125 10.40625 
L 48.78125 2.09375 
Q 45.015625 0.34375 40.984375 -0.53125 
Q 36.96875 -1.421875 32.421875 -1.421875 
Q 20.0625 -1.421875 12.78125 6.34375 
Q 5.515625 14.109375 5.515625 27.296875 
Q 5.515625 40.671875 12.859375 48.328125 
Q 20.21875 56 33.015625 56 
Q 37.15625 56 41.109375 55.140625 
Q 45.0625 54.296875 48.78125 52.59375 
z
" id="DejaVuSans-63"/>
     </defs>
     <g style="fill:#008000;" transform="translate(1134.490313 543.756562)rotate(-90)scale(0.22 -0.22)">
      <use xlink:href="#DejaVuSans-44"/>
      <use x="77.001953" xlink:href="#DejaVuSans-61"/>
      <use x="138.28125" xlink:href="#DejaVuSans-6d"/>
      <use x="235.693359" xlink:href="#DejaVuSans-61"/>
      <use x="296.972656" xlink:href="#DejaVuSans-67"/>
      <use x="360.449219" xlink:href="#DejaVuSans-65"/>
      <use x="421.972656" xlink:href="#DejaVuSans-20"/>
      <use x="453.759766" xlink:href="#DejaVuSans-54"/>
      <use x="514.59375" xlink:href="#DejaVuSans-61"/>
      <use x="575.873047" xlink:href="#DejaVuSans-6b"/>
      <use x="633.736328" xlink:href="#DejaVuSans-65"/>
      <use x="695.259766" xlink:href="#DejaVuSans-6e"/>
      <use x="758.638672" xlink:href="#DejaVuSans-20"/>
      <use x="790.425781" xlink:href="#DejaVuSans-25"/>
      <use x="885.445312" xlink:href="#DejaVuSans-20"/>
      <use x="917.232422" xlink:href="#DejaVuSans-49"/>
      <use x="946.724609" xlink:href="#DejaVuSans-6e"/>
      <use x="1010.103516" xlink:href="#DejaVuSans-63"/>
      <use x="1065.083984" xlink:href="#DejaVuSans-72"/>
      <use x="1106.166016" xlink:href="#DejaVuSans-65"/>
      <use x="1167.689453" xlink:href="#DejaVuSans-61"/>
      <use x="1228.96875" xlink:href="#DejaVuSans-73"/>
      <use x="1281.068359" xlink:href="#DejaVuSans-65"/>
      <use x="1342.591797" xlink:href="#DejaVuSans-20"/>
      <use x="1374.378906" xlink:href="#DejaVuSans-69"/>
      <use x="1402.162109" xlink:href="#DejaVuSans-6e"/>
      <use x="1465.541016" xlink:href="#DejaVuSans-20"/>
      <use x="1497.328125" xlink:href="#DejaVuSans-37"/>
      <use x="1560.951172" xlink:href="#DejaVuSans-2e"/>
      <use x="1592.738281" xlink:href="#DejaVuSans-32"/>
      <use x="1656.361328" xlink:href="#DejaVuSans-30"/>
     </g>
    </g>
   </g>
   <g id="line2d_54">
    <path clip-path="url(#p1b6f5bad46)" d="M 61.75625 180.028798 
L 74.31125 187.786355 
L 86.86625 195.682873 
L 99.42125 203.704068 
L 111.97625 211.830747 
L 124.53125 220.037544 
L 137.08625 228.291324 
L 149.64125 236.549152 
L 162.19625 244.755678 
L 174.75125 252.839783 
L 187.30625 260.710217 
L 199.86125 268.249905 
L 212.41625 275.308457 
L 224.97125 281.692228 
L 237.52625 287.151016 
L 250.08125 291.360081 
L 262.63625 293.895576 
L 275.19125 294.200596 
L 287.74625 291.537642 
L 300.30125 284.921123 
L 312.85625 273.02 
L 325.41125 261.118877 
L 337.96625 254.502358 
L 350.52125 251.839404 
L 363.07625 252.144424 
L 375.63125 254.679919 
L 388.18625 258.888984 
L 400.74125 264.347772 
L 413.29625 270.731543 
L 425.85125 277.790095 
L 438.40625 285.329783 
L 450.96125 293.200217 
L 463.51625 301.284322 
L 476.07125 309.490848 
L 488.62625 317.748676 
L 501.18125 326.002456 
L 513.73625 334.209253 
L 526.29125 342.335932 
L 538.84625 350.357127 
L 551.40125 358.253645 
L 563.95625 366.011202 
L 576.51125 373.619432 
L 589.06625 381.071089 
L 601.62125 388.361418 
L 614.17625 395.487645 
L 626.73125 402.448571 
L 639.28625 409.244249 
L 651.84125 415.875713 
L 664.39625 422.344767 
L 676.95125 428.653814 
L 689.50625 434.805714 
L 702.06125 440.803674 
L 714.61625 446.651149 
L 727.17125 452.351777 
L 739.72625 457.909312 
L 752.28125 463.327577 
L 764.83625 468.610428 
L 777.39125 473.761721 
L 789.94625 478.785284 
L 802.50125 483.684904 
L 815.05625 488.464305 
L 827.61125 493.127142 
L 840.16625 497.676987 
L 852.72125 502.117324 
L 865.27625 506.451549 
L 877.83125 510.682957 
L 890.38625 514.814751 
L 902.94125 518.850032 
L 915.49625 522.791806 
L 928.05125 526.642979 
L 940.60625 530.406364 
L 953.16125 534.084675 
L 965.71625 537.680537 
L 978.27125 541.196483 
L 990.82625 544.634958 
L 1003.38125 547.998321 
L 1015.93625 551.288847 
L 1028.49125 554.508733 
L 1041.04625 557.660094 
L 1053.60125 560.744974 
L 1066.15625 563.765342 
" style="fill:none;stroke:#008000;stroke-linecap:square;stroke-width:1.5;"/>
   </g>
   <g id="patch_10">
    <path d="M 61.75625 680.72 
L 61.75625 28.4 
" style="fill:none;stroke:#000000;stroke-linecap:square;stroke-linejoin:miter;stroke-width:0.8;"/>
   </g>
   <g id="patch_11">
    <path d="M 1066.15625 680.72 
L 1066.15625 28.4 
" style="fill:none;stroke:#000000;stroke-linecap:square;stroke-linejoin:miter;stroke-width:0.8;"/>
   </g>
   <g id="patch_12">
    <path d="M 61.75625 680.72 
L 1066.15625 680.72 
" style="fill:none;stroke:#000000;stroke-linecap:square;stroke-linejoin:miter;stroke-width:0.8;"/>
   </g>
   <g id="patch_13">
    <path d="M 61.75625 28.4 
L 1066.15625 28.4 
" style="fill:none;stroke:#000000;stroke-linecap:square;stroke-linejoin:miter;stroke-width:0.8;"/>
   </g>
  </g>
 </g>
 <defs>
  <clipPath id="p1b6f5bad46">
   <rect height="652.32" width="1004.4" x="61.75625" y="28.4"/>
  </clipPath>
 </defs>
</svg>
