<?xml version="1.0" encoding="utf-8" standalone="no"?>
<!DOCTYPE svg PUBLIC "-//W3C//DTD SVG 1.1//EN"
  "http://www.w3.org/Graphics/SVG/1.1/DTD/svg11.dtd">
<!-- Created with matplotlib (http://matplotlib.org/) -->
<svg height="720pt" version="1.1" viewBox="0 0 1296 720" width="1296pt" xmlns="http://www.w3.org/2000/svg" xmlns:xlink="http://www.w3.org/1999/xlink">
 <defs>
  <style type="text/css">
*{stroke-linecap:butt;stroke-linejoin:round;}
  </style>
 </defs>
 <g id="figure_1">
  <g id="patch_1">
   <path d="M 0 720 
L 1296 720 
L 1296 0 
L 0 0 
z
" style="fill:#ffffff;"/>
  </g>
  <g id="axes_1">
   <g id="patch_2">
    <path d="M 162 630 
L 1166.4 630 
L 1166.4 86.4 
L 162 86.4 
z
" style="fill:#ffffff;"/>
   </g>
   <g id="matplotlib.axis_1">
    <g id="xtick_1">
     <g id="line2d_1">
      <path clip-path="url(#p5cf2c8fe29)" d="M 162 630 
L 162 86.4 
" style="fill:none;stroke:#b0b0b0;stroke-linecap:square;stroke-width:0.8;"/>
     </g>
     <g id="line2d_2">
      <defs>
       <path d="M 0 0 
L 0 3.5 
" id="m5fa43a909c" style="stroke:#000000;stroke-width:0.8;"/>
      </defs>
      <g>
       <use style="stroke:#000000;stroke-width:0.8;" x="162" xlink:href="#m5fa43a909c" y="630"/>
      </g>
     </g>
     <g id="text_1">
      <!-- year 0 -->
      <defs>
       <path d="M 32.171875 -5.078125 
Q 28.375 -14.84375 24.75 -17.8125 
Q 21.140625 -20.796875 15.09375 -20.796875 
L 7.90625 -20.796875 
L 7.90625 -13.28125 
L 13.1875 -13.28125 
Q 16.890625 -13.28125 18.9375 -11.515625 
Q 21 -9.765625 23.484375 -3.21875 
L 25.09375 0.875 
L 2.984375 54.6875 
L 12.5 54.6875 
L 29.59375 11.921875 
L 46.6875 54.6875 
L 56.203125 54.6875 
z
" id="DejaVuSans-79"/>
       <path d="M 56.203125 29.59375 
L 56.203125 25.203125 
L 14.890625 25.203125 
Q 15.484375 15.921875 20.484375 11.0625 
Q 25.484375 6.203125 34.421875 6.203125 
Q 39.59375 6.203125 44.453125 7.46875 
Q 49.3125 8.734375 54.109375 11.28125 
L 54.109375 2.78125 
Q 49.265625 0.734375 44.1875 -0.34375 
Q 39.109375 -1.421875 33.890625 -1.421875 
Q 20.796875 -1.421875 13.15625 6.1875 
Q 5.515625 13.8125 5.515625 26.8125 
Q 5.515625 40.234375 12.765625 48.109375 
Q 20.015625 56 32.328125 56 
Q 43.359375 56 49.78125 48.890625 
Q 56.203125 41.796875 56.203125 29.59375 
z
M 47.21875 32.234375 
Q 47.125 39.59375 43.09375 43.984375 
Q 39.0625 48.390625 32.421875 48.390625 
Q 24.90625 48.390625 20.390625 44.140625 
Q 15.875 39.890625 15.1875 32.171875 
z
" id="DejaVuSans-65"/>
       <path d="M 34.28125 27.484375 
Q 23.390625 27.484375 19.1875 25 
Q 14.984375 22.515625 14.984375 16.5 
Q 14.984375 11.71875 18.140625 8.90625 
Q 21.296875 6.109375 26.703125 6.109375 
Q 34.1875 6.109375 38.703125 11.40625 
Q 43.21875 16.703125 43.21875 25.484375 
L 43.21875 27.484375 
z
M 52.203125 31.203125 
L 52.203125 0 
L 43.21875 0 
L 43.21875 8.296875 
Q 40.140625 3.328125 35.546875 0.953125 
Q 30.953125 -1.421875 24.3125 -1.421875 
Q 15.921875 -1.421875 10.953125 3.296875 
Q 6 8.015625 6 15.921875 
Q 6 25.140625 12.171875 29.828125 
Q 18.359375 34.515625 30.609375 34.515625 
L 43.21875 34.515625 
L 43.21875 35.40625 
Q 43.21875 41.609375 39.140625 45 
Q 35.0625 48.390625 27.6875 48.390625 
Q 23 48.390625 18.546875 47.265625 
Q 14.109375 46.140625 10.015625 43.890625 
L 10.015625 52.203125 
Q 14.9375 54.109375 19.578125 55.046875 
Q 24.21875 56 28.609375 56 
Q 40.484375 56 46.34375 49.84375 
Q 52.203125 43.703125 52.203125 31.203125 
z
" id="DejaVuSans-61"/>
       <path d="M 41.109375 46.296875 
Q 39.59375 47.171875 37.8125 47.578125 
Q 36.03125 48 33.890625 48 
Q 26.265625 48 22.1875 43.046875 
Q 18.109375 38.09375 18.109375 28.8125 
L 18.109375 0 
L 9.078125 0 
L 9.078125 54.6875 
L 18.109375 54.6875 
L 18.109375 46.1875 
Q 20.953125 51.171875 25.484375 53.578125 
Q 30.03125 56 36.53125 56 
Q 37.453125 56 38.578125 55.875 
Q 39.703125 55.765625 41.0625 55.515625 
z
" id="DejaVuSans-72"/>
       <path id="DejaVuSans-20"/>
       <path d="M 31.78125 66.40625 
Q 24.171875 66.40625 20.328125 58.90625 
Q 16.5 51.421875 16.5 36.375 
Q 16.5 21.390625 20.328125 13.890625 
Q 24.171875 6.390625 31.78125 6.390625 
Q 39.453125 6.390625 43.28125 13.890625 
Q 47.125 21.390625 47.125 36.375 
Q 47.125 51.421875 43.28125 58.90625 
Q 39.453125 66.40625 31.78125 66.40625 
z
M 31.78125 74.21875 
Q 44.046875 74.21875 50.515625 64.515625 
Q 56.984375 54.828125 56.984375 36.375 
Q 56.984375 17.96875 50.515625 8.265625 
Q 44.046875 -1.421875 31.78125 -1.421875 
Q 19.53125 -1.421875 13.0625 8.265625 
Q 6.59375 17.96875 6.59375 36.375 
Q 6.59375 54.828125 13.0625 64.515625 
Q 19.53125 74.21875 31.78125 74.21875 
z
" id="DejaVuSans-30"/>
      </defs>
      <g transform="translate(146.074219 644.598438)scale(0.1 -0.1)">
       <use xlink:href="#DejaVuSans-79"/>
       <use x="59.179688" xlink:href="#DejaVuSans-65"/>
       <use x="120.703125" xlink:href="#DejaVuSans-61"/>
       <use x="181.982422" xlink:href="#DejaVuSans-72"/>
       <use x="223.095703" xlink:href="#DejaVuSans-20"/>
       <use x="254.882812" xlink:href="#DejaVuSans-30"/>
      </g>
     </g>
    </g>
    <g id="xtick_2">
     <g id="line2d_3">
      <path clip-path="url(#p5cf2c8fe29)" d="M 262.44 630 
L 262.44 86.4 
" style="fill:none;stroke:#b0b0b0;stroke-linecap:square;stroke-width:0.8;"/>
     </g>
     <g id="line2d_4">
      <g>
       <use style="stroke:#000000;stroke-width:0.8;" x="262.44" xlink:href="#m5fa43a909c" y="630"/>
      </g>
     </g>
     <g id="text_2">
      <!-- year 1 -->
      <defs>
       <path d="M 12.40625 8.296875 
L 28.515625 8.296875 
L 28.515625 63.921875 
L 10.984375 60.40625 
L 10.984375 69.390625 
L 28.421875 72.90625 
L 38.28125 72.90625 
L 38.28125 8.296875 
L 54.390625 8.296875 
L 54.390625 0 
L 12.40625 0 
z
" id="DejaVuSans-31"/>
      </defs>
      <g transform="translate(246.514219 644.598438)scale(0.1 -0.1)">
       <use xlink:href="#DejaVuSans-79"/>
       <use x="59.179688" xlink:href="#DejaVuSans-65"/>
       <use x="120.703125" xlink:href="#DejaVuSans-61"/>
       <use x="181.982422" xlink:href="#DejaVuSans-72"/>
       <use x="223.095703" xlink:href="#DejaVuSans-20"/>
       <use x="254.882812" xlink:href="#DejaVuSans-31"/>
      </g>
     </g>
    </g>
    <g id="xtick_3">
     <g id="line2d_5">
      <path clip-path="url(#p5cf2c8fe29)" d="M 362.88 630 
L 362.88 86.4 
" style="fill:none;stroke:#b0b0b0;stroke-linecap:square;stroke-width:0.8;"/>
     </g>
     <g id="line2d_6">
      <g>
       <use style="stroke:#000000;stroke-width:0.8;" x="362.88" xlink:href="#m5fa43a909c" y="630"/>
      </g>
     </g>
     <g id="text_3">
      <!-- year 2 -->
      <defs>
       <path d="M 19.1875 8.296875 
L 53.609375 8.296875 
L 53.609375 0 
L 7.328125 0 
L 7.328125 8.296875 
Q 12.9375 14.109375 22.625 23.890625 
Q 32.328125 33.6875 34.8125 36.53125 
Q 39.546875 41.84375 41.421875 45.53125 
Q 43.3125 49.21875 43.3125 52.78125 
Q 43.3125 58.59375 39.234375 62.25 
Q 35.15625 65.921875 28.609375 65.921875 
Q 23.96875 65.921875 18.8125 64.3125 
Q 13.671875 62.703125 7.8125 59.421875 
L 7.8125 69.390625 
Q 13.765625 71.78125 18.9375 73 
Q 24.125 74.21875 28.421875 74.21875 
Q 39.75 74.21875 46.484375 68.546875 
Q 53.21875 62.890625 53.21875 53.421875 
Q 53.21875 48.921875 51.53125 44.890625 
Q 49.859375 40.875 45.40625 35.40625 
Q 44.1875 33.984375 37.640625 27.21875 
Q 31.109375 20.453125 19.1875 8.296875 
z
" id="DejaVuSans-32"/>
      </defs>
      <g transform="translate(346.954219 644.598438)scale(0.1 -0.1)">
       <use xlink:href="#DejaVuSans-79"/>
       <use x="59.179688" xlink:href="#DejaVuSans-65"/>
       <use x="120.703125" xlink:href="#DejaVuSans-61"/>
       <use x="181.982422" xlink:href="#DejaVuSans-72"/>
       <use x="223.095703" xlink:href="#DejaVuSans-20"/>
       <use x="254.882812" xlink:href="#DejaVuSans-32"/>
      </g>
     </g>
    </g>
    <g id="xtick_4">
     <g id="line2d_7">
      <path clip-path="url(#p5cf2c8fe29)" d="M 463.32 630 
L 463.32 86.4 
" style="fill:none;stroke:#b0b0b0;stroke-linecap:square;stroke-width:0.8;"/>
     </g>
     <g id="line2d_8">
      <g>
       <use style="stroke:#000000;stroke-width:0.8;" x="463.32" xlink:href="#m5fa43a909c" y="630"/>
      </g>
     </g>
     <g id="text_4">
      <!-- year 3 -->
      <defs>
       <path d="M 40.578125 39.3125 
Q 47.65625 37.796875 51.625 33 
Q 55.609375 28.21875 55.609375 21.1875 
Q 55.609375 10.40625 48.1875 4.484375 
Q 40.765625 -1.421875 27.09375 -1.421875 
Q 22.515625 -1.421875 17.65625 -0.515625 
Q 12.796875 0.390625 7.625 2.203125 
L 7.625 11.71875 
Q 11.71875 9.328125 16.59375 8.109375 
Q 21.484375 6.890625 26.8125 6.890625 
Q 36.078125 6.890625 40.9375 10.546875 
Q 45.796875 14.203125 45.796875 21.1875 
Q 45.796875 27.640625 41.28125 31.265625 
Q 36.765625 34.90625 28.71875 34.90625 
L 20.21875 34.90625 
L 20.21875 43.015625 
L 29.109375 43.015625 
Q 36.375 43.015625 40.234375 45.921875 
Q 44.09375 48.828125 44.09375 54.296875 
Q 44.09375 59.90625 40.109375 62.90625 
Q 36.140625 65.921875 28.71875 65.921875 
Q 24.65625 65.921875 20.015625 65.03125 
Q 15.375 64.15625 9.8125 62.3125 
L 9.8125 71.09375 
Q 15.4375 72.65625 20.34375 73.4375 
Q 25.25 74.21875 29.59375 74.21875 
Q 40.828125 74.21875 47.359375 69.109375 
Q 53.90625 64.015625 53.90625 55.328125 
Q 53.90625 49.265625 50.4375 45.09375 
Q 46.96875 40.921875 40.578125 39.3125 
z
" id="DejaVuSans-33"/>
      </defs>
      <g transform="translate(447.394219 644.598438)scale(0.1 -0.1)">
       <use xlink:href="#DejaVuSans-79"/>
       <use x="59.179688" xlink:href="#DejaVuSans-65"/>
       <use x="120.703125" xlink:href="#DejaVuSans-61"/>
       <use x="181.982422" xlink:href="#DejaVuSans-72"/>
       <use x="223.095703" xlink:href="#DejaVuSans-20"/>
       <use x="254.882812" xlink:href="#DejaVuSans-33"/>
      </g>
     </g>
    </g>
    <g id="xtick_5">
     <g id="line2d_9">
      <path clip-path="url(#p5cf2c8fe29)" d="M 563.76 630 
L 563.76 86.4 
" style="fill:none;stroke:#b0b0b0;stroke-linecap:square;stroke-width:0.8;"/>
     </g>
     <g id="line2d_10">
      <g>
       <use style="stroke:#000000;stroke-width:0.8;" x="563.76" xlink:href="#m5fa43a909c" y="630"/>
      </g>
     </g>
     <g id="text_5">
      <!-- year 4 -->
      <defs>
       <path d="M 37.796875 64.3125 
L 12.890625 25.390625 
L 37.796875 25.390625 
z
M 35.203125 72.90625 
L 47.609375 72.90625 
L 47.609375 25.390625 
L 58.015625 25.390625 
L 58.015625 17.1875 
L 47.609375 17.1875 
L 47.609375 0 
L 37.796875 0 
L 37.796875 17.1875 
L 4.890625 17.1875 
L 4.890625 26.703125 
z
" id="DejaVuSans-34"/>
      </defs>
      <g transform="translate(547.834219 644.598438)scale(0.1 -0.1)">
       <use xlink:href="#DejaVuSans-79"/>
       <use x="59.179688" xlink:href="#DejaVuSans-65"/>
       <use x="120.703125" xlink:href="#DejaVuSans-61"/>
       <use x="181.982422" xlink:href="#DejaVuSans-72"/>
       <use x="223.095703" xlink:href="#DejaVuSans-20"/>
       <use x="254.882812" xlink:href="#DejaVuSans-34"/>
      </g>
     </g>
    </g>
    <g id="xtick_6">
     <g id="line2d_11">
      <path clip-path="url(#p5cf2c8fe29)" d="M 664.2 630 
L 664.2 86.4 
" style="fill:none;stroke:#b0b0b0;stroke-linecap:square;stroke-width:0.8;"/>
     </g>
     <g id="line2d_12">
      <g>
       <use style="stroke:#000000;stroke-width:0.8;" x="664.2" xlink:href="#m5fa43a909c" y="630"/>
      </g>
     </g>
     <g id="text_6">
      <!-- year 5 -->
      <defs>
       <path d="M 10.796875 72.90625 
L 49.515625 72.90625 
L 49.515625 64.59375 
L 19.828125 64.59375 
L 19.828125 46.734375 
Q 21.96875 47.46875 24.109375 47.828125 
Q 26.265625 48.1875 28.421875 48.1875 
Q 40.625 48.1875 47.75 41.5 
Q 54.890625 34.8125 54.890625 23.390625 
Q 54.890625 11.625 47.5625 5.09375 
Q 40.234375 -1.421875 26.90625 -1.421875 
Q 22.3125 -1.421875 17.546875 -0.640625 
Q 12.796875 0.140625 7.71875 1.703125 
L 7.71875 11.625 
Q 12.109375 9.234375 16.796875 8.0625 
Q 21.484375 6.890625 26.703125 6.890625 
Q 35.15625 6.890625 40.078125 11.328125 
Q 45.015625 15.765625 45.015625 23.390625 
Q 45.015625 31 40.078125 35.4375 
Q 35.15625 39.890625 26.703125 39.890625 
Q 22.75 39.890625 18.8125 39.015625 
Q 14.890625 38.140625 10.796875 36.28125 
z
" id="DejaVuSans-35"/>
      </defs>
      <g transform="translate(648.274219 644.598438)scale(0.1 -0.1)">
       <use xlink:href="#DejaVuSans-79"/>
       <use x="59.179688" xlink:href="#DejaVuSans-65"/>
       <use x="120.703125" xlink:href="#DejaVuSans-61"/>
       <use x="181.982422" xlink:href="#DejaVuSans-72"/>
       <use x="223.095703" xlink:href="#DejaVuSans-20"/>
       <use x="254.882812" xlink:href="#DejaVuSans-35"/>
      </g>
     </g>
    </g>
    <g id="xtick_7">
     <g id="line2d_13">
      <path clip-path="url(#p5cf2c8fe29)" d="M 764.64 630 
L 764.64 86.4 
" style="fill:none;stroke:#b0b0b0;stroke-linecap:square;stroke-width:0.8;"/>
     </g>
     <g id="line2d_14">
      <g>
       <use style="stroke:#000000;stroke-width:0.8;" x="764.64" xlink:href="#m5fa43a909c" y="630"/>
      </g>
     </g>
     <g id="text_7">
      <!-- year 6 -->
      <defs>
       <path d="M 33.015625 40.375 
Q 26.375 40.375 22.484375 35.828125 
Q 18.609375 31.296875 18.609375 23.390625 
Q 18.609375 15.53125 22.484375 10.953125 
Q 26.375 6.390625 33.015625 6.390625 
Q 39.65625 6.390625 43.53125 10.953125 
Q 47.40625 15.53125 47.40625 23.390625 
Q 47.40625 31.296875 43.53125 35.828125 
Q 39.65625 40.375 33.015625 40.375 
z
M 52.59375 71.296875 
L 52.59375 62.3125 
Q 48.875 64.0625 45.09375 64.984375 
Q 41.3125 65.921875 37.59375 65.921875 
Q 27.828125 65.921875 22.671875 59.328125 
Q 17.53125 52.734375 16.796875 39.40625 
Q 19.671875 43.65625 24.015625 45.921875 
Q 28.375 48.1875 33.59375 48.1875 
Q 44.578125 48.1875 50.953125 41.515625 
Q 57.328125 34.859375 57.328125 23.390625 
Q 57.328125 12.15625 50.6875 5.359375 
Q 44.046875 -1.421875 33.015625 -1.421875 
Q 20.359375 -1.421875 13.671875 8.265625 
Q 6.984375 17.96875 6.984375 36.375 
Q 6.984375 53.65625 15.1875 63.9375 
Q 23.390625 74.21875 37.203125 74.21875 
Q 40.921875 74.21875 44.703125 73.484375 
Q 48.484375 72.75 52.59375 71.296875 
z
" id="DejaVuSans-36"/>
      </defs>
      <g transform="translate(748.714219 644.598438)scale(0.1 -0.1)">
       <use xlink:href="#DejaVuSans-79"/>
       <use x="59.179688" xlink:href="#DejaVuSans-65"/>
       <use x="120.703125" xlink:href="#DejaVuSans-61"/>
       <use x="181.982422" xlink:href="#DejaVuSans-72"/>
       <use x="223.095703" xlink:href="#DejaVuSans-20"/>
       <use x="254.882812" xlink:href="#DejaVuSans-36"/>
      </g>
     </g>
    </g>
    <g id="xtick_8">
     <g id="line2d_15">
      <path clip-path="url(#p5cf2c8fe29)" d="M 865.08 630 
L 865.08 86.4 
" style="fill:none;stroke:#b0b0b0;stroke-linecap:square;stroke-width:0.8;"/>
     </g>
     <g id="line2d_16">
      <g>
       <use style="stroke:#000000;stroke-width:0.8;" x="865.08" xlink:href="#m5fa43a909c" y="630"/>
      </g>
     </g>
     <g id="text_8">
      <!-- year 7 -->
      <defs>
       <path d="M 8.203125 72.90625 
L 55.078125 72.90625 
L 55.078125 68.703125 
L 28.609375 0 
L 18.3125 0 
L 43.21875 64.59375 
L 8.203125 64.59375 
z
" id="DejaVuSans-37"/>
      </defs>
      <g transform="translate(849.154219 644.598438)scale(0.1 -0.1)">
       <use xlink:href="#DejaVuSans-79"/>
       <use x="59.179688" xlink:href="#DejaVuSans-65"/>
       <use x="120.703125" xlink:href="#DejaVuSans-61"/>
       <use x="181.982422" xlink:href="#DejaVuSans-72"/>
       <use x="223.095703" xlink:href="#DejaVuSans-20"/>
       <use x="254.882812" xlink:href="#DejaVuSans-37"/>
      </g>
     </g>
    </g>
    <g id="xtick_9">
     <g id="line2d_17">
      <path clip-path="url(#p5cf2c8fe29)" d="M 965.52 630 
L 965.52 86.4 
" style="fill:none;stroke:#b0b0b0;stroke-linecap:square;stroke-width:0.8;"/>
     </g>
     <g id="line2d_18">
      <g>
       <use style="stroke:#000000;stroke-width:0.8;" x="965.52" xlink:href="#m5fa43a909c" y="630"/>
      </g>
     </g>
     <g id="text_9">
      <!-- year 8 -->
      <defs>
       <path d="M 31.78125 34.625 
Q 24.75 34.625 20.71875 30.859375 
Q 16.703125 27.09375 16.703125 20.515625 
Q 16.703125 13.921875 20.71875 10.15625 
Q 24.75 6.390625 31.78125 6.390625 
Q 38.8125 6.390625 42.859375 10.171875 
Q 46.921875 13.96875 46.921875 20.515625 
Q 46.921875 27.09375 42.890625 30.859375 
Q 38.875 34.625 31.78125 34.625 
z
M 21.921875 38.8125 
Q 15.578125 40.375 12.03125 44.71875 
Q 8.5 49.078125 8.5 55.328125 
Q 8.5 64.0625 14.71875 69.140625 
Q 20.953125 74.21875 31.78125 74.21875 
Q 42.671875 74.21875 48.875 69.140625 
Q 55.078125 64.0625 55.078125 55.328125 
Q 55.078125 49.078125 51.53125 44.71875 
Q 48 40.375 41.703125 38.8125 
Q 48.828125 37.15625 52.796875 32.3125 
Q 56.78125 27.484375 56.78125 20.515625 
Q 56.78125 9.90625 50.3125 4.234375 
Q 43.84375 -1.421875 31.78125 -1.421875 
Q 19.734375 -1.421875 13.25 4.234375 
Q 6.78125 9.90625 6.78125 20.515625 
Q 6.78125 27.484375 10.78125 32.3125 
Q 14.796875 37.15625 21.921875 38.8125 
z
M 18.3125 54.390625 
Q 18.3125 48.734375 21.84375 45.5625 
Q 25.390625 42.390625 31.78125 42.390625 
Q 38.140625 42.390625 41.71875 45.5625 
Q 45.3125 48.734375 45.3125 54.390625 
Q 45.3125 60.0625 41.71875 63.234375 
Q 38.140625 66.40625 31.78125 66.40625 
Q 25.390625 66.40625 21.84375 63.234375 
Q 18.3125 60.0625 18.3125 54.390625 
z
" id="DejaVuSans-38"/>
      </defs>
      <g transform="translate(949.594219 644.598438)scale(0.1 -0.1)">
       <use xlink:href="#DejaVuSans-79"/>
       <use x="59.179688" xlink:href="#DejaVuSans-65"/>
       <use x="120.703125" xlink:href="#DejaVuSans-61"/>
       <use x="181.982422" xlink:href="#DejaVuSans-72"/>
       <use x="223.095703" xlink:href="#DejaVuSans-20"/>
       <use x="254.882812" xlink:href="#DejaVuSans-38"/>
      </g>
     </g>
    </g>
    <g id="xtick_10">
     <g id="line2d_19">
      <path clip-path="url(#p5cf2c8fe29)" d="M 1065.96 630 
L 1065.96 86.4 
" style="fill:none;stroke:#b0b0b0;stroke-linecap:square;stroke-width:0.8;"/>
     </g>
     <g id="line2d_20">
      <g>
       <use style="stroke:#000000;stroke-width:0.8;" x="1065.96" xlink:href="#m5fa43a909c" y="630"/>
      </g>
     </g>
     <g id="text_10">
      <!-- year 9 -->
      <defs>
       <path d="M 10.984375 1.515625 
L 10.984375 10.5 
Q 14.703125 8.734375 18.5 7.8125 
Q 22.3125 6.890625 25.984375 6.890625 
Q 35.75 6.890625 40.890625 13.453125 
Q 46.046875 20.015625 46.78125 33.40625 
Q 43.953125 29.203125 39.59375 26.953125 
Q 35.25 24.703125 29.984375 24.703125 
Q 19.046875 24.703125 12.671875 31.3125 
Q 6.296875 37.9375 6.296875 49.421875 
Q 6.296875 60.640625 12.9375 67.421875 
Q 19.578125 74.21875 30.609375 74.21875 
Q 43.265625 74.21875 49.921875 64.515625 
Q 56.59375 54.828125 56.59375 36.375 
Q 56.59375 19.140625 48.40625 8.859375 
Q 40.234375 -1.421875 26.421875 -1.421875 
Q 22.703125 -1.421875 18.890625 -0.6875 
Q 15.09375 0.046875 10.984375 1.515625 
z
M 30.609375 32.421875 
Q 37.25 32.421875 41.125 36.953125 
Q 45.015625 41.5 45.015625 49.421875 
Q 45.015625 57.28125 41.125 61.84375 
Q 37.25 66.40625 30.609375 66.40625 
Q 23.96875 66.40625 20.09375 61.84375 
Q 16.21875 57.28125 16.21875 49.421875 
Q 16.21875 41.5 20.09375 36.953125 
Q 23.96875 32.421875 30.609375 32.421875 
z
" id="DejaVuSans-39"/>
      </defs>
      <g transform="translate(1050.034219 644.598438)scale(0.1 -0.1)">
       <use xlink:href="#DejaVuSans-79"/>
       <use x="59.179688" xlink:href="#DejaVuSans-65"/>
       <use x="120.703125" xlink:href="#DejaVuSans-61"/>
       <use x="181.982422" xlink:href="#DejaVuSans-72"/>
       <use x="223.095703" xlink:href="#DejaVuSans-20"/>
       <use x="254.882812" xlink:href="#DejaVuSans-39"/>
      </g>
     </g>
    </g>
   </g>
   <g id="matplotlib.axis_2">
    <g id="ytick_1">
     <g id="line2d_21">
      <path clip-path="url(#p5cf2c8fe29)" d="M 162 589.47317 
L 1166.4 589.47317 
" style="fill:none;stroke:#b0b0b0;stroke-linecap:square;stroke-width:0.8;"/>
     </g>
     <g id="line2d_22">
      <defs>
       <path d="M 0 0 
L -3.5 0 
" id="m33e70bbddd" style="stroke:#000000;stroke-width:0.8;"/>
      </defs>
      <g>
       <use style="stroke:#000000;stroke-width:0.8;" x="162" xlink:href="#m33e70bbddd" y="589.47317"/>
      </g>
     </g>
     <g id="text_11">
      <!-- −25000 -->
      <defs>
       <path d="M 10.59375 35.5 
L 73.1875 35.5 
L 73.1875 27.203125 
L 10.59375 27.203125 
z
" id="DejaVuSans-2212"/>
      </defs>
      <g transform="translate(114.807812 593.272389)scale(0.1 -0.1)">
       <use xlink:href="#DejaVuSans-2212"/>
       <use x="83.789062" xlink:href="#DejaVuSans-32"/>
       <use x="147.412109" xlink:href="#DejaVuSans-35"/>
       <use x="211.035156" xlink:href="#DejaVuSans-30"/>
       <use x="274.658203" xlink:href="#DejaVuSans-30"/>
       <use x="338.28125" xlink:href="#DejaVuSans-30"/>
      </g>
     </g>
    </g>
    <g id="ytick_2">
     <g id="line2d_23">
      <path clip-path="url(#p5cf2c8fe29)" d="M 162 522.321614 
L 1166.4 522.321614 
" style="fill:none;stroke:#b0b0b0;stroke-linecap:square;stroke-width:0.8;"/>
     </g>
     <g id="line2d_24">
      <g>
       <use style="stroke:#000000;stroke-width:0.8;" x="162" xlink:href="#m33e70bbddd" y="522.321614"/>
      </g>
     </g>
     <g id="text_12">
      <!-- 0 -->
      <g transform="translate(148.6375 526.120832)scale(0.1 -0.1)">
       <use xlink:href="#DejaVuSans-30"/>
      </g>
     </g>
    </g>
    <g id="ytick_3">
     <g id="line2d_25">
      <path clip-path="url(#p5cf2c8fe29)" d="M 162 455.170057 
L 1166.4 455.170057 
" style="fill:none;stroke:#b0b0b0;stroke-linecap:square;stroke-width:0.8;"/>
     </g>
     <g id="line2d_26">
      <g>
       <use style="stroke:#000000;stroke-width:0.8;" x="162" xlink:href="#m33e70bbddd" y="455.170057"/>
      </g>
     </g>
     <g id="text_13">
      <!-- 25000 -->
      <g transform="translate(123.1875 458.969276)scale(0.1 -0.1)">
       <use xlink:href="#DejaVuSans-32"/>
       <use x="63.623047" xlink:href="#DejaVuSans-35"/>
       <use x="127.246094" xlink:href="#DejaVuSans-30"/>
       <use x="190.869141" xlink:href="#DejaVuSans-30"/>
       <use x="254.492188" xlink:href="#DejaVuSans-30"/>
      </g>
     </g>
    </g>
    <g id="ytick_4">
     <g id="line2d_27">
      <path clip-path="url(#p5cf2c8fe29)" d="M 162 388.0185 
L 1166.4 388.0185 
" style="fill:none;stroke:#b0b0b0;stroke-linecap:square;stroke-width:0.8;"/>
     </g>
     <g id="line2d_28">
      <g>
       <use style="stroke:#000000;stroke-width:0.8;" x="162" xlink:href="#m33e70bbddd" y="388.0185"/>
      </g>
     </g>
     <g id="text_14">
      <!-- 50000 -->
      <g transform="translate(123.1875 391.817719)scale(0.1 -0.1)">
       <use xlink:href="#DejaVuSans-35"/>
       <use x="63.623047" xlink:href="#DejaVuSans-30"/>
       <use x="127.246094" xlink:href="#DejaVuSans-30"/>
       <use x="190.869141" xlink:href="#DejaVuSans-30"/>
       <use x="254.492188" xlink:href="#DejaVuSans-30"/>
      </g>
     </g>
    </g>
    <g id="ytick_5">
     <g id="line2d_29">
      <path clip-path="url(#p5cf2c8fe29)" d="M 162 320.866944 
L 1166.4 320.866944 
" style="fill:none;stroke:#b0b0b0;stroke-linecap:square;stroke-width:0.8;"/>
     </g>
     <g id="line2d_30">
      <g>
       <use style="stroke:#000000;stroke-width:0.8;" x="162" xlink:href="#m33e70bbddd" y="320.866944"/>
      </g>
     </g>
     <g id="text_15">
      <!-- 75000 -->
      <g transform="translate(123.1875 324.666162)scale(0.1 -0.1)">
       <use xlink:href="#DejaVuSans-37"/>
       <use x="63.623047" xlink:href="#DejaVuSans-35"/>
       <use x="127.246094" xlink:href="#DejaVuSans-30"/>
       <use x="190.869141" xlink:href="#DejaVuSans-30"/>
       <use x="254.492188" xlink:href="#DejaVuSans-30"/>
      </g>
     </g>
    </g>
    <g id="ytick_6">
     <g id="line2d_31">
      <path clip-path="url(#p5cf2c8fe29)" d="M 162 253.715387 
L 1166.4 253.715387 
" style="fill:none;stroke:#b0b0b0;stroke-linecap:square;stroke-width:0.8;"/>
     </g>
     <g id="line2d_32">
      <g>
       <use style="stroke:#000000;stroke-width:0.8;" x="162" xlink:href="#m33e70bbddd" y="253.715387"/>
      </g>
     </g>
     <g id="text_16">
      <!-- 100000 -->
      <g transform="translate(116.825 257.514606)scale(0.1 -0.1)">
       <use xlink:href="#DejaVuSans-31"/>
       <use x="63.623047" xlink:href="#DejaVuSans-30"/>
       <use x="127.246094" xlink:href="#DejaVuSans-30"/>
       <use x="190.869141" xlink:href="#DejaVuSans-30"/>
       <use x="254.492188" xlink:href="#DejaVuSans-30"/>
       <use x="318.115234" xlink:href="#DejaVuSans-30"/>
      </g>
     </g>
    </g>
    <g id="ytick_7">
     <g id="line2d_33">
      <path clip-path="url(#p5cf2c8fe29)" d="M 162 186.56383 
L 1166.4 186.56383 
" style="fill:none;stroke:#b0b0b0;stroke-linecap:square;stroke-width:0.8;"/>
     </g>
     <g id="line2d_34">
      <g>
       <use style="stroke:#000000;stroke-width:0.8;" x="162" xlink:href="#m33e70bbddd" y="186.56383"/>
      </g>
     </g>
     <g id="text_17">
      <!-- 125000 -->
      <g transform="translate(116.825 190.363049)scale(0.1 -0.1)">
       <use xlink:href="#DejaVuSans-31"/>
       <use x="63.623047" xlink:href="#DejaVuSans-32"/>
       <use x="127.246094" xlink:href="#DejaVuSans-35"/>
       <use x="190.869141" xlink:href="#DejaVuSans-30"/>
       <use x="254.492188" xlink:href="#DejaVuSans-30"/>
       <use x="318.115234" xlink:href="#DejaVuSans-30"/>
      </g>
     </g>
    </g>
    <g id="ytick_8">
     <g id="line2d_35">
      <path clip-path="url(#p5cf2c8fe29)" d="M 162 119.412274 
L 1166.4 119.412274 
" style="fill:none;stroke:#b0b0b0;stroke-linecap:square;stroke-width:0.8;"/>
     </g>
     <g id="line2d_36">
      <g>
       <use style="stroke:#000000;stroke-width:0.8;" x="162" xlink:href="#m33e70bbddd" y="119.412274"/>
      </g>
     </g>
     <g id="text_18">
      <!-- 150000 -->
      <g transform="translate(116.825 123.211492)scale(0.1 -0.1)">
       <use xlink:href="#DejaVuSans-31"/>
       <use x="63.623047" xlink:href="#DejaVuSans-35"/>
       <use x="127.246094" xlink:href="#DejaVuSans-30"/>
       <use x="190.869141" xlink:href="#DejaVuSans-30"/>
       <use x="254.492188" xlink:href="#DejaVuSans-30"/>
       <use x="318.115234" xlink:href="#DejaVuSans-30"/>
      </g>
     </g>
    </g>
    <g id="text_19">
     <!-- $ -->
     <defs>
      <path d="M 33.796875 -14.703125 
L 28.90625 -14.703125 
L 28.859375 0 
Q 23.734375 0.09375 18.609375 1.1875 
Q 13.484375 2.296875 8.296875 4.5 
L 8.296875 13.28125 
Q 13.28125 10.15625 18.375 8.5625 
Q 23.484375 6.984375 28.90625 6.9375 
L 28.90625 29.203125 
Q 18.109375 30.953125 13.203125 35.15625 
Q 8.296875 39.359375 8.296875 46.6875 
Q 8.296875 54.640625 13.625 59.21875 
Q 18.953125 63.8125 28.90625 64.5 
L 28.90625 75.984375 
L 33.796875 75.984375 
L 33.796875 64.65625 
Q 38.328125 64.453125 42.578125 63.6875 
Q 46.828125 62.9375 50.875 61.625 
L 50.875 53.078125 
Q 46.828125 55.125 42.546875 56.25 
Q 38.28125 57.375 33.796875 57.5625 
L 33.796875 36.71875 
Q 44.875 35.015625 50.09375 30.609375 
Q 55.328125 26.21875 55.328125 18.609375 
Q 55.328125 10.359375 49.78125 5.59375 
Q 44.234375 0.828125 33.796875 0.09375 
z
M 28.90625 37.59375 
L 28.90625 57.625 
Q 23.25 56.984375 20.265625 54.390625 
Q 17.28125 51.8125 17.28125 47.515625 
Q 17.28125 43.3125 20.03125 40.96875 
Q 22.796875 38.625 28.90625 37.59375 
z
M 33.796875 28.21875 
L 33.796875 7.078125 
Q 39.984375 7.90625 43.140625 10.59375 
Q 46.296875 13.28125 46.296875 17.671875 
Q 46.296875 21.96875 43.28125 24.5 
Q 40.28125 27.046875 33.796875 28.21875 
z
" id="DejaVuSans-24"/>
     </defs>
     <g transform="translate(106.2325 365.19875)rotate(-90)scale(0.22 -0.22)">
      <use xlink:href="#DejaVuSans-24"/>
     </g>
    </g>
   </g>
   <g id="line2d_37">
    <path clip-path="url(#p5cf2c8fe29)" d="M 162 533.331711 
L 170.37 532.549994 
L 178.74 531.768278 
L 187.11 530.986562 
L 195.48 530.204845 
L 203.85 529.423129 
L 212.22 536.189248 
L 220.59 535.407531 
L 228.96 534.625815 
L 237.33 533.844099 
L 245.7 533.062382 
L 254.07 532.280666 
L 262.44 543.490875 
L 270.81 542.662152 
L 279.18 541.83343 
L 287.55 541.004707 
L 295.92 540.175985 
L 304.29 539.347263 
L 312.66 546.20605 
L 321.03 545.377328 
L 329.4 544.548606 
L 337.77 543.719883 
L 346.14 542.891161 
L 354.51 542.062438 
L 362.88 553.403834 
L 371.25 552.454239 
L 379.62 551.504644 
L 387.99 550.555049 
L 396.36 549.605453 
L 404.73 548.655858 
L 413.1 555.536242 
L 421.47 554.586647 
L 429.84 553.637052 
L 438.21 552.687456 
L 446.58 551.737861 
L 454.95 550.788266 
L 463.32 562.339757 
L 471.69 561.343156 
L 480.06 560.346554 
L 488.43 559.349953 
L 496.8 558.353352 
L 505.17 557.356751 
L 513.54 564.335446 
L 521.91 563.338845 
L 530.28 562.342244 
L 538.65 561.345642 
L 547.02 560.349041 
L 555.39 559.35244 
L 563.76 571.058732 
L 572.13 569.954688 
L 580.5 568.850644 
L 588.87 567.7466 
L 597.24 566.642557 
L 605.61 565.538513 
L 613.98 572.557991 
L 622.35 571.453947 
L 630.72 570.349903 
L 639.09 569.245859 
L 647.46 568.141815 
L 655.83 567.037772 
L 664.2 578.964546 
L 672.57 577.813496 
L 680.94 576.662446 
L 689.31 575.511396 
L 697.68 574.360346 
L 706.05 573.209296 
L 714.42 580.332957 
L 722.79 579.181907 
L 731.16 578.030857 
L 739.53 576.879807 
L 747.9 575.728757 
L 756.27 574.577708 
L 764.64 586.669877 
L 773.01 585.411385 
L 781.38 584.152892 
L 789.75 582.8944 
L 798.12 581.635908 
L 806.49 580.377415 
L 814.86 587.547846 
L 823.23 586.289354 
L 831.6 585.030861 
L 839.97 583.772369 
L 848.34 582.513877 
L 856.71 581.255384 
L 865.08 593.518406 
L 873.45 592.152471 
L 881.82 590.786536 
L 890.19 589.420601 
L 898.56 588.054666 
L 906.93 586.688732 
L 915.3 593.909017 
L 923.67 592.543082 
L 932.04 591.177147 
L 940.41 589.811212 
L 948.78 588.445278 
L 957.15 587.079343 
L 965.52 599.565789 
L 973.89 598.139417 
L 982.26 596.713046 
L 990.63 595.286675 
L 999 593.860304 
L 1007.37 592.433932 
L 1015.74 599.754224 
L 1024.11 598.327853 
L 1032.48 596.901482 
L 1040.85 595.47511 
L 1049.22 594.048739 
L 1057.59 592.622368 
L 1065.96 605.290909 
L 1074.33 603.757095 
L 1082.7 602.223282 
L 1091.07 600.689468 
L 1099.44 599.155654 
L 1107.81 597.62184 
L 1116.18 604.998342 
L 1124.55 603.464528 
L 1132.92 601.930714 
L 1141.29 600.3969 
L 1149.66 598.863087 
L 1158.03 597.329273 
" style="fill:none;stroke:#ff0000;stroke-linecap:square;stroke-width:1.5;"/>
    <defs>
     <path d="M 0 2.5 
C 0.663008 2.5 1.29895 2.236584 1.767767 1.767767 
C 2.236584 1.29895 2.5 0.663008 2.5 0 
C 2.5 -0.663008 2.236584 -1.29895 1.767767 -1.767767 
C 1.29895 -2.236584 0.663008 -2.5 0 -2.5 
C -0.663008 -2.5 -1.29895 -2.236584 -1.767767 -1.767767 
C -2.236584 -1.29895 -2.5 -0.663008 -2.5 0 
C -2.5 0.663008 -2.236584 1.29895 -1.767767 1.767767 
C -1.29895 2.236584 -0.663008 2.5 0 2.5 
z
" id="mee91459cb2" style="stroke:#ff0000;"/>
    </defs>
    <g clip-path="url(#p5cf2c8fe29)">
     <use style="fill:#ff0000;stroke:#ff0000;" x="162" xlink:href="#mee91459cb2" y="533.331711"/>
     <use style="fill:#ff0000;stroke:#ff0000;" x="262.44" xlink:href="#mee91459cb2" y="543.490875"/>
     <use style="fill:#ff0000;stroke:#ff0000;" x="362.88" xlink:href="#mee91459cb2" y="553.403834"/>
     <use style="fill:#ff0000;stroke:#ff0000;" x="463.32" xlink:href="#mee91459cb2" y="562.339757"/>
     <use style="fill:#ff0000;stroke:#ff0000;" x="563.76" xlink:href="#mee91459cb2" y="571.058732"/>
     <use style="fill:#ff0000;stroke:#ff0000;" x="664.2" xlink:href="#mee91459cb2" y="578.964546"/>
     <use style="fill:#ff0000;stroke:#ff0000;" x="764.64" xlink:href="#mee91459cb2" y="586.669877"/>
     <use style="fill:#ff0000;stroke:#ff0000;" x="865.08" xlink:href="#mee91459cb2" y="593.518406"/>
     <use style="fill:#ff0000;stroke:#ff0000;" x="965.52" xlink:href="#mee91459cb2" y="599.565789"/>
     <use style="fill:#ff0000;stroke:#ff0000;" x="1065.96" xlink:href="#mee91459cb2" y="605.290909"/>
    </g>
   </g>
   <g id="line2d_38">
    <path clip-path="url(#p5cf2c8fe29)" d="M 162 436.467499 
L 170.37 432.827373 
L 178.74 429.180855 
L 187.11 425.52793 
L 195.48 421.868584 
L 203.85 418.202801 
L 212.22 422.078402 
L 220.59 418.399702 
L 228.96 414.714521 
L 237.33 411.022845 
L 245.7 407.324657 
L 254.07 403.619944 
L 262.44 411.900614 
L 270.81 408.135798 
L 279.18 404.36441 
L 287.55 400.586436 
L 295.92 396.80186 
L 304.29 393.010668 
L 312.66 396.900354 
L 321.03 393.095882 
L 329.4 389.284748 
L 337.77 385.466936 
L 346.14 381.64243 
L 354.51 377.811216 
L 362.88 386.143395 
L 371.25 382.177844 
L 379.62 378.205537 
L 387.99 374.226459 
L 396.36 370.240594 
L 404.73 366.247927 
L 413.1 370.078421 
L 421.47 366.072103 
L 429.84 362.058934 
L 438.21 358.038901 
L 446.58 354.011986 
L 454.95 349.978174 
L 463.32 358.438535 
L 471.69 354.343875 
L 480.06 350.24227 
L 488.43 346.133704 
L 496.8 342.018161 
L 505.17 337.895625 
L 513.54 341.741376 
L 521.91 337.604805 
L 530.28 333.461192 
L 538.65 329.31052 
L 547.02 325.152775 
L 555.39 320.987938 
L 563.76 329.518888 
L 572.13 325.232379 
L 580.5 320.938729 
L 588.87 316.637923 
L 597.24 312.329944 
L 605.61 308.014775 
L 613.98 311.815922 
L 622.35 307.486324 
L 630.72 303.149487 
L 639.09 298.805393 
L 647.46 294.454026 
L 655.83 290.095369 
L 664.2 298.760223 
L 672.57 294.33993 
L 680.94 289.912296 
L 689.31 285.477304 
L 697.68 281.034938 
L 706.05 276.58518 
L 714.42 280.402723 
L 722.79 275.938131 
L 731.16 271.466095 
L 739.53 266.986599 
L 747.9 262.499625 
L 756.27 258.005157 
L 764.64 266.746395 
L 773.01 262.129442 
L 781.38 257.504942 
L 789.75 252.872878 
L 798.12 248.233232 
L 806.49 243.585986 
L 814.86 247.360046 
L 823.23 242.697548 
L 831.6 238.027398 
L 839.97 233.349578 
L 848.34 228.664069 
L 856.71 223.970855 
L 865.08 232.791432 
L 873.45 227.975311 
L 881.82 223.15143 
L 890.19 218.319772 
L 898.56 213.480318 
L 906.93 208.633051 
L 915.3 212.364173 
L 923.67 207.501225 
L 932.04 202.63041 
L 940.41 197.751708 
L 948.78 192.865102 
L 957.15 187.970573 
L 965.52 196.920484 
L 973.89 191.949619 
L 982.26 186.970776 
L 990.63 181.983936 
L 999 176.989082 
L 1007.37 171.986194 
L 1015.74 175.721918 
L 1024.11 170.702907 
L 1032.48 165.675808 
L 1040.85 160.6406 
L 1049.22 155.597265 
L 1057.59 150.545785 
L 1065.96 159.581052 
L 1074.33 154.405781 
L 1082.7 149.222307 
L 1091.07 144.030612 
L 1099.44 138.830676 
L 1107.81 133.62248 
L 1116.18 137.31632 
L 1124.55 132.091548 
L 1132.92 126.858458 
L 1141.29 121.617031 
L 1149.66 116.367249 
L 1158.03 111.109091 
" style="fill:none;stroke:#0000ff;stroke-dasharray:9.6,2.4,1.5,2.4;stroke-dashoffset:0;stroke-width:1.5;"/>
    <defs>
     <path d="M 0 2.5 
C 0.663008 2.5 1.29895 2.236584 1.767767 1.767767 
C 2.236584 1.29895 2.5 0.663008 2.5 0 
C 2.5 -0.663008 2.236584 -1.29895 1.767767 -1.767767 
C 1.29895 -2.236584 0.663008 -2.5 0 -2.5 
C -0.663008 -2.5 -1.29895 -2.236584 -1.767767 -1.767767 
C -2.236584 -1.29895 -2.5 -0.663008 -2.5 0 
C -2.5 0.663008 -2.236584 1.29895 -1.767767 1.767767 
C -1.29895 2.236584 -0.663008 2.5 0 2.5 
z
" id="m7fbaaa26d1" style="stroke:#0000ff;"/>
    </defs>
    <g clip-path="url(#p5cf2c8fe29)">
     <use style="fill:#0000ff;stroke:#0000ff;" x="162" xlink:href="#m7fbaaa26d1" y="436.467499"/>
     <use style="fill:#0000ff;stroke:#0000ff;" x="262.44" xlink:href="#m7fbaaa26d1" y="411.900614"/>
     <use style="fill:#0000ff;stroke:#0000ff;" x="362.88" xlink:href="#m7fbaaa26d1" y="386.143395"/>
     <use style="fill:#0000ff;stroke:#0000ff;" x="463.32" xlink:href="#m7fbaaa26d1" y="358.438535"/>
     <use style="fill:#0000ff;stroke:#0000ff;" x="563.76" xlink:href="#m7fbaaa26d1" y="329.518888"/>
     <use style="fill:#0000ff;stroke:#0000ff;" x="664.2" xlink:href="#m7fbaaa26d1" y="298.760223"/>
     <use style="fill:#0000ff;stroke:#0000ff;" x="764.64" xlink:href="#m7fbaaa26d1" y="266.746395"/>
     <use style="fill:#0000ff;stroke:#0000ff;" x="865.08" xlink:href="#m7fbaaa26d1" y="232.791432"/>
     <use style="fill:#0000ff;stroke:#0000ff;" x="965.52" xlink:href="#m7fbaaa26d1" y="196.920484"/>
     <use style="fill:#0000ff;stroke:#0000ff;" x="1065.96" xlink:href="#m7fbaaa26d1" y="159.581052"/>
    </g>
   </g>
   <g id="patch_3">
    <path d="M 162 630 
L 162 86.4 
" style="fill:none;stroke:#000000;stroke-linecap:square;stroke-linejoin:miter;stroke-width:0.8;"/>
   </g>
   <g id="patch_4">
    <path d="M 1166.4 630 
L 1166.4 86.4 
" style="fill:none;stroke:#000000;stroke-linecap:square;stroke-linejoin:miter;stroke-width:0.8;"/>
   </g>
   <g id="patch_5">
    <path d="M 162 630 
L 1166.4 630 
" style="fill:none;stroke:#000000;stroke-linecap:square;stroke-linejoin:miter;stroke-width:0.8;"/>
   </g>
   <g id="patch_6">
    <path d="M 162 86.4 
L 1166.4 86.4 
" style="fill:none;stroke:#000000;stroke-linecap:square;stroke-linejoin:miter;stroke-width:0.8;"/>
   </g>
   <g id="text_20">
    <!-- Rental Income -->
    <defs>
     <path d="M 44.390625 34.1875 
Q 47.5625 33.109375 50.5625 29.59375 
Q 53.5625 26.078125 56.59375 19.921875 
L 66.609375 0 
L 56 0 
L 46.6875 18.703125 
Q 43.0625 26.03125 39.671875 28.421875 
Q 36.28125 30.8125 30.421875 30.8125 
L 19.671875 30.8125 
L 19.671875 0 
L 9.8125 0 
L 9.8125 72.90625 
L 32.078125 72.90625 
Q 44.578125 72.90625 50.734375 67.671875 
Q 56.890625 62.453125 56.890625 51.90625 
Q 56.890625 45.015625 53.6875 40.46875 
Q 50.484375 35.9375 44.390625 34.1875 
z
M 19.671875 64.796875 
L 19.671875 38.921875 
L 32.078125 38.921875 
Q 39.203125 38.921875 42.84375 42.21875 
Q 46.484375 45.515625 46.484375 51.90625 
Q 46.484375 58.296875 42.84375 61.546875 
Q 39.203125 64.796875 32.078125 64.796875 
z
" id="DejaVuSans-52"/>
     <path d="M 54.890625 33.015625 
L 54.890625 0 
L 45.90625 0 
L 45.90625 32.71875 
Q 45.90625 40.484375 42.875 44.328125 
Q 39.84375 48.1875 33.796875 48.1875 
Q 26.515625 48.1875 22.3125 43.546875 
Q 18.109375 38.921875 18.109375 30.90625 
L 18.109375 0 
L 9.078125 0 
L 9.078125 54.6875 
L 18.109375 54.6875 
L 18.109375 46.1875 
Q 21.34375 51.125 25.703125 53.5625 
Q 30.078125 56 35.796875 56 
Q 45.21875 56 50.046875 50.171875 
Q 54.890625 44.34375 54.890625 33.015625 
z
" id="DejaVuSans-6e"/>
     <path d="M 18.3125 70.21875 
L 18.3125 54.6875 
L 36.8125 54.6875 
L 36.8125 47.703125 
L 18.3125 47.703125 
L 18.3125 18.015625 
Q 18.3125 11.328125 20.140625 9.421875 
Q 21.96875 7.515625 27.59375 7.515625 
L 36.8125 7.515625 
L 36.8125 0 
L 27.59375 0 
Q 17.1875 0 13.234375 3.875 
Q 9.28125 7.765625 9.28125 18.015625 
L 9.28125 47.703125 
L 2.6875 47.703125 
L 2.6875 54.6875 
L 9.28125 54.6875 
L 9.28125 70.21875 
z
" id="DejaVuSans-74"/>
     <path d="M 9.421875 75.984375 
L 18.40625 75.984375 
L 18.40625 0 
L 9.421875 0 
z
" id="DejaVuSans-6c"/>
     <path d="M 9.8125 72.90625 
L 19.671875 72.90625 
L 19.671875 0 
L 9.8125 0 
z
" id="DejaVuSans-49"/>
     <path d="M 48.78125 52.59375 
L 48.78125 44.1875 
Q 44.96875 46.296875 41.140625 47.34375 
Q 37.3125 48.390625 33.40625 48.390625 
Q 24.65625 48.390625 19.8125 42.84375 
Q 14.984375 37.3125 14.984375 27.296875 
Q 14.984375 17.28125 19.8125 11.734375 
Q 24.65625 6.203125 33.40625 6.203125 
Q 37.3125 6.203125 41.140625 7.25 
Q 44.96875 8.296875 48.78125 10.40625 
L 48.78125 2.09375 
Q 45.015625 0.34375 40.984375 -0.53125 
Q 36.96875 -1.421875 32.421875 -1.421875 
Q 20.0625 -1.421875 12.78125 6.34375 
Q 5.515625 14.109375 5.515625 27.296875 
Q 5.515625 40.671875 12.859375 48.328125 
Q 20.21875 56 33.015625 56 
Q 37.15625 56 41.109375 55.140625 
Q 45.0625 54.296875 48.78125 52.59375 
z
" id="DejaVuSans-63"/>
     <path d="M 30.609375 48.390625 
Q 23.390625 48.390625 19.1875 42.75 
Q 14.984375 37.109375 14.984375 27.296875 
Q 14.984375 17.484375 19.15625 11.84375 
Q 23.34375 6.203125 30.609375 6.203125 
Q 37.796875 6.203125 41.984375 11.859375 
Q 46.1875 17.53125 46.1875 27.296875 
Q 46.1875 37.015625 41.984375 42.703125 
Q 37.796875 48.390625 30.609375 48.390625 
z
M 30.609375 56 
Q 42.328125 56 49.015625 48.375 
Q 55.71875 40.765625 55.71875 27.296875 
Q 55.71875 13.875 49.015625 6.21875 
Q 42.328125 -1.421875 30.609375 -1.421875 
Q 18.84375 -1.421875 12.171875 6.21875 
Q 5.515625 13.875 5.515625 27.296875 
Q 5.515625 40.765625 12.171875 48.375 
Q 18.84375 56 30.609375 56 
z
" id="DejaVuSans-6f"/>
     <path d="M 52 44.1875 
Q 55.375 50.25 60.0625 53.125 
Q 64.75 56 71.09375 56 
Q 79.640625 56 84.28125 50.015625 
Q 88.921875 44.046875 88.921875 33.015625 
L 88.921875 0 
L 79.890625 0 
L 79.890625 32.71875 
Q 79.890625 40.578125 77.09375 44.375 
Q 74.3125 48.1875 68.609375 48.1875 
Q 61.625 48.1875 57.5625 43.546875 
Q 53.515625 38.921875 53.515625 30.90625 
L 53.515625 0 
L 44.484375 0 
L 44.484375 32.71875 
Q 44.484375 40.625 41.703125 44.40625 
Q 38.921875 48.1875 33.109375 48.1875 
Q 26.21875 48.1875 22.15625 43.53125 
Q 18.109375 38.875 18.109375 30.90625 
L 18.109375 0 
L 9.078125 0 
L 9.078125 54.6875 
L 18.109375 54.6875 
L 18.109375 46.1875 
Q 21.1875 51.21875 25.484375 53.609375 
Q 29.78125 56 35.6875 56 
Q 41.65625 56 45.828125 52.96875 
Q 50 49.953125 52 44.1875 
z
" id="DejaVuSans-6d"/>
    </defs>
    <g transform="translate(591.964063 80.4)scale(0.2 -0.2)">
     <use xlink:href="#DejaVuSans-52"/>
     <use x="69.419922" xlink:href="#DejaVuSans-65"/>
     <use x="130.943359" xlink:href="#DejaVuSans-6e"/>
     <use x="194.322266" xlink:href="#DejaVuSans-74"/>
     <use x="233.53125" xlink:href="#DejaVuSans-61"/>
     <use x="294.810547" xlink:href="#DejaVuSans-6c"/>
     <use x="322.59375" xlink:href="#DejaVuSans-20"/>
     <use x="354.380859" xlink:href="#DejaVuSans-49"/>
     <use x="383.873047" xlink:href="#DejaVuSans-6e"/>
     <use x="447.251953" xlink:href="#DejaVuSans-63"/>
     <use x="502.232422" xlink:href="#DejaVuSans-6f"/>
     <use x="563.414062" xlink:href="#DejaVuSans-6d"/>
     <use x="660.826172" xlink:href="#DejaVuSans-65"/>
    </g>
   </g>
   <g id="legend_1">
    <g id="patch_7">
     <path d="M 176.6 155.64125 
L 326.18 155.64125 
Q 329.78 155.64125 329.78 152.04125 
L 329.78 101 
Q 329.78 97.4 326.18 97.4 
L 176.6 97.4 
Q 173 97.4 173 101 
L 173 152.04125 
Q 173 155.64125 176.6 155.64125 
z
" style="fill:#4c4c4c;opacity:0.5;stroke:#4c4c4c;stroke-linejoin:miter;"/>
    </g>
    <g id="patch_8">
     <path d="M 174.6 153.64125 
L 324.18 153.64125 
Q 327.78 153.64125 327.78 150.04125 
L 327.78 99 
Q 327.78 95.4 324.18 95.4 
L 174.6 95.4 
Q 171 95.4 171 99 
L 171 150.04125 
Q 171 153.64125 174.6 153.64125 
z
" style="fill:#ffffff;stroke:#cccccc;stroke-linejoin:miter;"/>
    </g>
    <g id="line2d_39">
     <path d="M 178.2 109.977187 
L 214.2 109.977187 
" style="fill:none;stroke:#ff0000;stroke-linecap:square;stroke-width:1.5;"/>
    </g>
    <g id="line2d_40">
     <g>
      <use style="fill:#ff0000;stroke:#ff0000;" x="196.2" xlink:href="#mee91459cb2" y="109.977187"/>
     </g>
    </g>
    <g id="text_21">
     <!-- Cash -->
     <defs>
      <path d="M 64.40625 67.28125 
L 64.40625 56.890625 
Q 59.421875 61.53125 53.78125 63.8125 
Q 48.140625 66.109375 41.796875 66.109375 
Q 29.296875 66.109375 22.65625 58.46875 
Q 16.015625 50.828125 16.015625 36.375 
Q 16.015625 21.96875 22.65625 14.328125 
Q 29.296875 6.6875 41.796875 6.6875 
Q 48.140625 6.6875 53.78125 8.984375 
Q 59.421875 11.28125 64.40625 15.921875 
L 64.40625 5.609375 
Q 59.234375 2.09375 53.4375 0.328125 
Q 47.65625 -1.421875 41.21875 -1.421875 
Q 24.65625 -1.421875 15.125 8.703125 
Q 5.609375 18.84375 5.609375 36.375 
Q 5.609375 53.953125 15.125 64.078125 
Q 24.65625 74.21875 41.21875 74.21875 
Q 47.75 74.21875 53.53125 72.484375 
Q 59.328125 70.75 64.40625 67.28125 
z
" id="DejaVuSans-43"/>
      <path d="M 44.28125 53.078125 
L 44.28125 44.578125 
Q 40.484375 46.53125 36.375 47.5 
Q 32.28125 48.484375 27.875 48.484375 
Q 21.1875 48.484375 17.84375 46.4375 
Q 14.5 44.390625 14.5 40.28125 
Q 14.5 37.15625 16.890625 35.375 
Q 19.28125 33.59375 26.515625 31.984375 
L 29.59375 31.296875 
Q 39.15625 29.25 43.1875 25.515625 
Q 47.21875 21.78125 47.21875 15.09375 
Q 47.21875 7.46875 41.1875 3.015625 
Q 35.15625 -1.421875 24.609375 -1.421875 
Q 20.21875 -1.421875 15.453125 -0.5625 
Q 10.6875 0.296875 5.421875 2 
L 5.421875 11.28125 
Q 10.40625 8.6875 15.234375 7.390625 
Q 20.0625 6.109375 24.8125 6.109375 
Q 31.15625 6.109375 34.5625 8.28125 
Q 37.984375 10.453125 37.984375 14.40625 
Q 37.984375 18.0625 35.515625 20.015625 
Q 33.0625 21.96875 24.703125 23.78125 
L 21.578125 24.515625 
Q 13.234375 26.265625 9.515625 29.90625 
Q 5.8125 33.546875 5.8125 39.890625 
Q 5.8125 47.609375 11.28125 51.796875 
Q 16.75 56 26.8125 56 
Q 31.78125 56 36.171875 55.265625 
Q 40.578125 54.546875 44.28125 53.078125 
z
" id="DejaVuSans-73"/>
      <path d="M 54.890625 33.015625 
L 54.890625 0 
L 45.90625 0 
L 45.90625 32.71875 
Q 45.90625 40.484375 42.875 44.328125 
Q 39.84375 48.1875 33.796875 48.1875 
Q 26.515625 48.1875 22.3125 43.546875 
Q 18.109375 38.921875 18.109375 30.90625 
L 18.109375 0 
L 9.078125 0 
L 9.078125 75.984375 
L 18.109375 75.984375 
L 18.109375 46.1875 
Q 21.34375 51.125 25.703125 53.5625 
Q 30.078125 56 35.796875 56 
Q 45.21875 56 50.046875 50.171875 
Q 54.890625 44.34375 54.890625 33.015625 
z
" id="DejaVuSans-68"/>
     </defs>
     <g transform="translate(228.6 116.277187)scale(0.18 -0.18)">
      <use xlink:href="#DejaVuSans-43"/>
      <use x="69.824219" xlink:href="#DejaVuSans-61"/>
      <use x="131.103516" xlink:href="#DejaVuSans-73"/>
      <use x="183.203125" xlink:href="#DejaVuSans-68"/>
     </g>
    </g>
    <g id="line2d_41">
     <path d="M 178.2 136.397812 
L 214.2 136.397812 
" style="fill:none;stroke:#0000ff;stroke-dasharray:9.6,2.4,1.5,2.4;stroke-dashoffset:0;stroke-width:1.5;"/>
    </g>
    <g id="line2d_42">
     <g>
      <use style="fill:#0000ff;stroke:#0000ff;" x="196.2" xlink:href="#m7fbaaa26d1" y="136.397812"/>
     </g>
    </g>
    <g id="text_22">
     <!-- Net Worth -->
     <defs>
      <path d="M 9.8125 72.90625 
L 23.09375 72.90625 
L 55.421875 11.921875 
L 55.421875 72.90625 
L 64.984375 72.90625 
L 64.984375 0 
L 51.703125 0 
L 19.390625 60.984375 
L 19.390625 0 
L 9.8125 0 
z
" id="DejaVuSans-4e"/>
      <path d="M 3.328125 72.90625 
L 13.28125 72.90625 
L 28.609375 11.28125 
L 43.890625 72.90625 
L 54.984375 72.90625 
L 70.3125 11.28125 
L 85.59375 72.90625 
L 95.609375 72.90625 
L 77.296875 0 
L 64.890625 0 
L 49.515625 63.28125 
L 33.984375 0 
L 21.578125 0 
z
" id="DejaVuSans-57"/>
     </defs>
     <g transform="translate(228.6 142.697812)scale(0.18 -0.18)">
      <use xlink:href="#DejaVuSans-4e"/>
      <use x="74.804688" xlink:href="#DejaVuSans-65"/>
      <use x="136.328125" xlink:href="#DejaVuSans-74"/>
      <use x="175.537109" xlink:href="#DejaVuSans-20"/>
      <use x="207.324219" xlink:href="#DejaVuSans-57"/>
      <use x="306.123047" xlink:href="#DejaVuSans-6f"/>
      <use x="367.304688" xlink:href="#DejaVuSans-72"/>
      <use x="408.417969" xlink:href="#DejaVuSans-74"/>
      <use x="447.626953" xlink:href="#DejaVuSans-68"/>
     </g>
    </g>
   </g>
  </g>
  <g id="axes_2">
   <g id="matplotlib.axis_3">
    <g id="ytick_9">
     <g id="line2d_43">
      <defs>
       <path d="M 0 0 
L 3.5 0 
" id="m0f763999bf" style="stroke:#008000;stroke-width:0.8;"/>
      </defs>
      <g>
       <use style="fill:#008000;stroke:#008000;stroke-width:0.8;" x="1166.4" xlink:href="#m0f763999bf" y="630"/>
      </g>
     </g>
     <g id="text_23">
      <!-- -10.0% -->
      <defs>
       <path d="M 4.890625 31.390625 
L 31.203125 31.390625 
L 31.203125 23.390625 
L 4.890625 23.390625 
z
" id="DejaVuSans-2d"/>
       <path d="M 10.6875 12.40625 
L 21 12.40625 
L 21 0 
L 10.6875 0 
z
" id="DejaVuSans-2e"/>
       <path d="M 72.703125 32.078125 
Q 68.453125 32.078125 66.03125 28.46875 
Q 63.625 24.859375 63.625 18.40625 
Q 63.625 12.0625 66.03125 8.421875 
Q 68.453125 4.78125 72.703125 4.78125 
Q 76.859375 4.78125 79.265625 8.421875 
Q 81.6875 12.0625 81.6875 18.40625 
Q 81.6875 24.8125 79.265625 28.4375 
Q 76.859375 32.078125 72.703125 32.078125 
z
M 72.703125 38.28125 
Q 80.421875 38.28125 84.953125 32.90625 
Q 89.5 27.546875 89.5 18.40625 
Q 89.5 9.28125 84.9375 3.921875 
Q 80.375 -1.421875 72.703125 -1.421875 
Q 64.890625 -1.421875 60.34375 3.921875 
Q 55.8125 9.28125 55.8125 18.40625 
Q 55.8125 27.59375 60.375 32.9375 
Q 64.9375 38.28125 72.703125 38.28125 
z
M 22.3125 68.015625 
Q 18.109375 68.015625 15.6875 64.375 
Q 13.28125 60.75 13.28125 54.390625 
Q 13.28125 47.953125 15.671875 44.328125 
Q 18.0625 40.71875 22.3125 40.71875 
Q 26.5625 40.71875 28.96875 44.328125 
Q 31.390625 47.953125 31.390625 54.390625 
Q 31.390625 60.6875 28.953125 64.34375 
Q 26.515625 68.015625 22.3125 68.015625 
z
M 66.40625 74.21875 
L 74.21875 74.21875 
L 28.609375 -1.421875 
L 20.796875 -1.421875 
z
M 22.3125 74.21875 
Q 30.03125 74.21875 34.609375 68.875 
Q 39.203125 63.53125 39.203125 54.390625 
Q 39.203125 45.171875 34.640625 39.84375 
Q 30.078125 34.515625 22.3125 34.515625 
Q 14.546875 34.515625 10.03125 39.859375 
Q 5.515625 45.21875 5.515625 54.390625 
Q 5.515625 63.484375 10.046875 68.84375 
Q 14.59375 74.21875 22.3125 74.21875 
z
" id="DejaVuSans-25"/>
      </defs>
      <g style="fill:#008000;" transform="translate(1173.4 635.318906)scale(0.14 -0.14)">
       <use xlink:href="#DejaVuSans-2d"/>
       <use x="36.083984" xlink:href="#DejaVuSans-31"/>
       <use x="99.707031" xlink:href="#DejaVuSans-30"/>
       <use x="163.330078" xlink:href="#DejaVuSans-2e"/>
       <use x="195.117188" xlink:href="#DejaVuSans-30"/>
       <use x="258.740234" xlink:href="#DejaVuSans-25"/>
      </g>
     </g>
    </g>
    <g id="ytick_10">
     <g id="line2d_44">
      <g>
       <use style="fill:#008000;stroke:#008000;stroke-width:0.8;" x="1166.4" xlink:href="#m0f763999bf" y="562.05"/>
      </g>
     </g>
     <g id="text_24">
      <!-- -5.0% -->
      <g style="fill:#008000;" transform="translate(1173.4 567.368906)scale(0.14 -0.14)">
       <use xlink:href="#DejaVuSans-2d"/>
       <use x="36.083984" xlink:href="#DejaVuSans-35"/>
       <use x="99.707031" xlink:href="#DejaVuSans-2e"/>
       <use x="131.494141" xlink:href="#DejaVuSans-30"/>
       <use x="195.117188" xlink:href="#DejaVuSans-25"/>
      </g>
     </g>
    </g>
    <g id="ytick_11">
     <g id="line2d_45">
      <g>
       <use style="fill:#008000;stroke:#008000;stroke-width:0.8;" x="1166.4" xlink:href="#m0f763999bf" y="494.1"/>
      </g>
     </g>
     <g id="text_25">
      <!-- 0.0% -->
      <g style="fill:#008000;" transform="translate(1173.4 499.418906)scale(0.14 -0.14)">
       <use xlink:href="#DejaVuSans-30"/>
       <use x="63.623047" xlink:href="#DejaVuSans-2e"/>
       <use x="95.410156" xlink:href="#DejaVuSans-30"/>
       <use x="159.033203" xlink:href="#DejaVuSans-25"/>
      </g>
     </g>
    </g>
    <g id="ytick_12">
     <g id="line2d_46">
      <g>
       <use style="fill:#008000;stroke:#008000;stroke-width:0.8;" x="1166.4" xlink:href="#m0f763999bf" y="426.15"/>
      </g>
     </g>
     <g id="text_26">
      <!-- 5.0% -->
      <g style="fill:#008000;" transform="translate(1173.4 431.468906)scale(0.14 -0.14)">
       <use xlink:href="#DejaVuSans-35"/>
       <use x="63.623047" xlink:href="#DejaVuSans-2e"/>
       <use x="95.410156" xlink:href="#DejaVuSans-30"/>
       <use x="159.033203" xlink:href="#DejaVuSans-25"/>
      </g>
     </g>
    </g>
    <g id="ytick_13">
     <g id="line2d_47">
      <g>
       <use style="fill:#008000;stroke:#008000;stroke-width:0.8;" x="1166.4" xlink:href="#m0f763999bf" y="358.2"/>
      </g>
     </g>
     <g id="text_27">
      <!-- 10.0% -->
      <g style="fill:#008000;" transform="translate(1173.4 363.518906)scale(0.14 -0.14)">
       <use xlink:href="#DejaVuSans-31"/>
       <use x="63.623047" xlink:href="#DejaVuSans-30"/>
       <use x="127.246094" xlink:href="#DejaVuSans-2e"/>
       <use x="159.033203" xlink:href="#DejaVuSans-30"/>
       <use x="222.65625" xlink:href="#DejaVuSans-25"/>
      </g>
     </g>
    </g>
    <g id="ytick_14">
     <g id="line2d_48">
      <g>
       <use style="fill:#008000;stroke:#008000;stroke-width:0.8;" x="1166.4" xlink:href="#m0f763999bf" y="290.25"/>
      </g>
     </g>
     <g id="text_28">
      <!-- 15.0% -->
      <g style="fill:#008000;" transform="translate(1173.4 295.568906)scale(0.14 -0.14)">
       <use xlink:href="#DejaVuSans-31"/>
       <use x="63.623047" xlink:href="#DejaVuSans-35"/>
       <use x="127.246094" xlink:href="#DejaVuSans-2e"/>
       <use x="159.033203" xlink:href="#DejaVuSans-30"/>
       <use x="222.65625" xlink:href="#DejaVuSans-25"/>
      </g>
     </g>
    </g>
    <g id="ytick_15">
     <g id="line2d_49">
      <g>
       <use style="fill:#008000;stroke:#008000;stroke-width:0.8;" x="1166.4" xlink:href="#m0f763999bf" y="222.3"/>
      </g>
     </g>
     <g id="text_29">
      <!-- 20.0% -->
      <g style="fill:#008000;" transform="translate(1173.4 227.618906)scale(0.14 -0.14)">
       <use xlink:href="#DejaVuSans-32"/>
       <use x="63.623047" xlink:href="#DejaVuSans-30"/>
       <use x="127.246094" xlink:href="#DejaVuSans-2e"/>
       <use x="159.033203" xlink:href="#DejaVuSans-30"/>
       <use x="222.65625" xlink:href="#DejaVuSans-25"/>
      </g>
     </g>
    </g>
    <g id="ytick_16">
     <g id="line2d_50">
      <g>
       <use style="fill:#008000;stroke:#008000;stroke-width:0.8;" x="1166.4" xlink:href="#m0f763999bf" y="154.35"/>
      </g>
     </g>
     <g id="text_30">
      <!-- 25.0% -->
      <g style="fill:#008000;" transform="translate(1173.4 159.668906)scale(0.14 -0.14)">
       <use xlink:href="#DejaVuSans-32"/>
       <use x="63.623047" xlink:href="#DejaVuSans-35"/>
       <use x="127.246094" xlink:href="#DejaVuSans-2e"/>
       <use x="159.033203" xlink:href="#DejaVuSans-30"/>
       <use x="222.65625" xlink:href="#DejaVuSans-25"/>
      </g>
     </g>
    </g>
    <g id="ytick_17">
     <g id="line2d_51">
      <g>
       <use style="fill:#008000;stroke:#008000;stroke-width:0.8;" x="1166.4" xlink:href="#m0f763999bf" y="86.4"/>
      </g>
     </g>
     <g id="text_31">
      <!-- 30.0% -->
      <g style="fill:#008000;" transform="translate(1173.4 91.718906)scale(0.14 -0.14)">
       <use xlink:href="#DejaVuSans-33"/>
       <use x="63.623047" xlink:href="#DejaVuSans-30"/>
       <use x="127.246094" xlink:href="#DejaVuSans-2e"/>
       <use x="159.033203" xlink:href="#DejaVuSans-30"/>
       <use x="222.65625" xlink:href="#DejaVuSans-25"/>
      </g>
     </g>
    </g>
    <g id="text_32">
     <!-- % increase -->
     <defs>
      <path d="M 9.421875 54.6875 
L 18.40625 54.6875 
L 18.40625 0 
L 9.421875 0 
z
M 9.421875 75.984375 
L 18.40625 75.984375 
L 18.40625 64.59375 
L 9.421875 64.59375 
z
" id="DejaVuSans-69"/>
     </defs>
     <g style="fill:#008000;" transform="translate(1243.641563 418.749844)rotate(-90)scale(0.22 -0.22)">
      <use xlink:href="#DejaVuSans-25"/>
      <use x="95.019531" xlink:href="#DejaVuSans-20"/>
      <use x="126.806641" xlink:href="#DejaVuSans-69"/>
      <use x="154.589844" xlink:href="#DejaVuSans-6e"/>
      <use x="217.96875" xlink:href="#DejaVuSans-63"/>
      <use x="272.949219" xlink:href="#DejaVuSans-72"/>
      <use x="314.03125" xlink:href="#DejaVuSans-65"/>
      <use x="375.554688" xlink:href="#DejaVuSans-61"/>
      <use x="436.833984" xlink:href="#DejaVuSans-73"/>
      <use x="488.933594" xlink:href="#DejaVuSans-65"/>
     </g>
    </g>
   </g>
   <g id="line2d_52">
    <path clip-path="url(#p5cf2c8fe29)" d="M 262.44 351.686839 
L 362.88 190.595045 
L 463.32 221.732986 
L 563.76 251.596052 
L 664.2 272.51207 
L 764.64 291.300082 
L 865.08 311.604049 
L 965.52 321.786204 
L 1065.96 331.665457 
L 1166.4 341.125374 
" style="fill:none;stroke:#008000;stroke-linecap:square;stroke-width:1.5;"/>
    <defs>
     <path d="M 0 2.5 
C 0.663008 2.5 1.29895 2.236584 1.767767 1.767767 
C 2.236584 1.29895 2.5 0.663008 2.5 0 
C 2.5 -0.663008 2.236584 -1.29895 1.767767 -1.767767 
C 1.29895 -2.236584 0.663008 -2.5 0 -2.5 
C -0.663008 -2.5 -1.29895 -2.236584 -1.767767 -1.767767 
C -2.236584 -1.29895 -2.5 -0.663008 -2.5 0 
C -2.5 0.663008 -2.236584 1.29895 -1.767767 1.767767 
C -1.29895 2.236584 -0.663008 2.5 0 2.5 
z
" id="m5b91004333" style="stroke:#008000;"/>
    </defs>
    <g clip-path="url(#p5cf2c8fe29)">
     <use style="fill:#008000;stroke:#008000;" x="262.44" xlink:href="#m5b91004333" y="351.686839"/>
     <use style="fill:#008000;stroke:#008000;" x="362.88" xlink:href="#m5b91004333" y="190.595045"/>
     <use style="fill:#008000;stroke:#008000;" x="463.32" xlink:href="#m5b91004333" y="221.732986"/>
     <use style="fill:#008000;stroke:#008000;" x="563.76" xlink:href="#m5b91004333" y="251.596052"/>
     <use style="fill:#008000;stroke:#008000;" x="664.2" xlink:href="#m5b91004333" y="272.51207"/>
     <use style="fill:#008000;stroke:#008000;" x="764.64" xlink:href="#m5b91004333" y="291.300082"/>
     <use style="fill:#008000;stroke:#008000;" x="865.08" xlink:href="#m5b91004333" y="311.604049"/>
     <use style="fill:#008000;stroke:#008000;" x="965.52" xlink:href="#m5b91004333" y="321.786204"/>
     <use style="fill:#008000;stroke:#008000;" x="1065.96" xlink:href="#m5b91004333" y="331.665457"/>
     <use style="fill:#008000;stroke:#008000;" x="1166.4" xlink:href="#m5b91004333" y="341.125374"/>
    </g>
   </g>
   <g id="patch_9">
    <path d="M 162 630 
L 162 86.4 
" style="fill:none;stroke:#000000;stroke-linecap:square;stroke-linejoin:miter;stroke-width:0.8;"/>
   </g>
   <g id="patch_10">
    <path d="M 1166.4 630 
L 1166.4 86.4 
" style="fill:none;stroke:#000000;stroke-linecap:square;stroke-linejoin:miter;stroke-width:0.8;"/>
   </g>
   <g id="patch_11">
    <path d="M 162 630 
L 1166.4 630 
" style="fill:none;stroke:#000000;stroke-linecap:square;stroke-linejoin:miter;stroke-width:0.8;"/>
   </g>
   <g id="patch_12">
    <path d="M 162 86.4 
L 1166.4 86.4 
" style="fill:none;stroke:#000000;stroke-linecap:square;stroke-linejoin:miter;stroke-width:0.8;"/>
   </g>
   <g id="text_33">
    <!-- End Worth: $153.1k -->
    <defs>
     <path d="M 9.8125 72.90625 
L 55.90625 72.90625 
L 55.90625 64.59375 
L 19.671875 64.59375 
L 19.671875 43.015625 
L 54.390625 43.015625 
L 54.390625 34.71875 
L 19.671875 34.71875 
L 19.671875 8.296875 
L 56.78125 8.296875 
L 56.78125 0 
L 9.8125 0 
z
" id="DejaVuSans-45"/>
     <path d="M 45.40625 46.390625 
L 45.40625 75.984375 
L 54.390625 75.984375 
L 54.390625 0 
L 45.40625 0 
L 45.40625 8.203125 
Q 42.578125 3.328125 38.25 0.953125 
Q 33.9375 -1.421875 27.875 -1.421875 
Q 17.96875 -1.421875 11.734375 6.484375 
Q 5.515625 14.40625 5.515625 27.296875 
Q 5.515625 40.1875 11.734375 48.09375 
Q 17.96875 56 27.875 56 
Q 33.9375 56 38.25 53.625 
Q 42.578125 51.265625 45.40625 46.390625 
z
M 14.796875 27.296875 
Q 14.796875 17.390625 18.875 11.75 
Q 22.953125 6.109375 30.078125 6.109375 
Q 37.203125 6.109375 41.296875 11.75 
Q 45.40625 17.390625 45.40625 27.296875 
Q 45.40625 37.203125 41.296875 42.84375 
Q 37.203125 48.484375 30.078125 48.484375 
Q 22.953125 48.484375 18.875 42.84375 
Q 14.796875 37.203125 14.796875 27.296875 
z
" id="DejaVuSans-64"/>
     <path d="M 11.71875 12.40625 
L 22.015625 12.40625 
L 22.015625 0 
L 11.71875 0 
z
M 11.71875 51.703125 
L 22.015625 51.703125 
L 22.015625 39.3125 
L 11.71875 39.3125 
z
" id="DejaVuSans-3a"/>
     <path d="M 9.078125 75.984375 
L 18.109375 75.984375 
L 18.109375 31.109375 
L 44.921875 54.6875 
L 56.390625 54.6875 
L 27.390625 29.109375 
L 57.625 0 
L 45.90625 0 
L 18.109375 26.703125 
L 18.109375 0 
L 9.078125 0 
z
" id="DejaVuSans-6b"/>
    </defs>
    <g transform="translate(886.067 391.9265)scale(0.16 -0.16)">
     <use xlink:href="#DejaVuSans-45"/>
     <use x="63.183594" xlink:href="#DejaVuSans-6e"/>
     <use x="126.5625" xlink:href="#DejaVuSans-64"/>
     <use x="190.039062" xlink:href="#DejaVuSans-20"/>
     <use x="221.826172" xlink:href="#DejaVuSans-57"/>
     <use x="320.625" xlink:href="#DejaVuSans-6f"/>
     <use x="381.806641" xlink:href="#DejaVuSans-72"/>
     <use x="422.919922" xlink:href="#DejaVuSans-74"/>
     <use x="462.128906" xlink:href="#DejaVuSans-68"/>
     <use x="525.507812" xlink:href="#DejaVuSans-3a"/>
     <use x="559.199219" xlink:href="#DejaVuSans-20"/>
     <use x="590.986328" xlink:href="#DejaVuSans-24"/>
     <use x="654.609375" xlink:href="#DejaVuSans-31"/>
     <use x="718.232422" xlink:href="#DejaVuSans-35"/>
     <use x="781.855469" xlink:href="#DejaVuSans-33"/>
     <use x="845.478516" xlink:href="#DejaVuSans-2e"/>
     <use x="877.265625" xlink:href="#DejaVuSans-31"/>
     <use x="940.888672" xlink:href="#DejaVuSans-6b"/>
    </g>
    <!--  -->
    <g transform="translate(1045.872 409.843)scale(0.16 -0.16)"/>
    <!-- End Cash: $-27.9k -->
    <g transform="translate(899.6095 427.7595)scale(0.16 -0.16)">
     <use xlink:href="#DejaVuSans-45"/>
     <use x="63.183594" xlink:href="#DejaVuSans-6e"/>
     <use x="126.5625" xlink:href="#DejaVuSans-64"/>
     <use x="190.039062" xlink:href="#DejaVuSans-20"/>
     <use x="221.826172" xlink:href="#DejaVuSans-43"/>
     <use x="291.650391" xlink:href="#DejaVuSans-61"/>
     <use x="352.929688" xlink:href="#DejaVuSans-73"/>
     <use x="405.029297" xlink:href="#DejaVuSans-68"/>
     <use x="468.408203" xlink:href="#DejaVuSans-3a"/>
     <use x="502.099609" xlink:href="#DejaVuSans-20"/>
     <use x="533.886719" xlink:href="#DejaVuSans-24"/>
     <use x="597.509766" xlink:href="#DejaVuSans-2d"/>
     <use x="633.59375" xlink:href="#DejaVuSans-32"/>
     <use x="697.216797" xlink:href="#DejaVuSans-37"/>
     <use x="760.839844" xlink:href="#DejaVuSans-2e"/>
     <use x="792.626953" xlink:href="#DejaVuSans-39"/>
     <use x="856.25" xlink:href="#DejaVuSans-6b"/>
    </g>
    <!--  -->
    <g transform="translate(1045.872 445.676)scale(0.16 -0.16)"/>
    <!-- Avg YoY Return: 14.4% -->
    <defs>
     <path d="M 34.1875 63.1875 
L 20.796875 26.90625 
L 47.609375 26.90625 
z
M 28.609375 72.90625 
L 39.796875 72.90625 
L 67.578125 0 
L 57.328125 0 
L 50.6875 18.703125 
L 17.828125 18.703125 
L 11.1875 0 
L 0.78125 0 
z
" id="DejaVuSans-41"/>
     <path d="M 2.984375 54.6875 
L 12.5 54.6875 
L 29.59375 8.796875 
L 46.6875 54.6875 
L 56.203125 54.6875 
L 35.6875 0 
L 23.484375 0 
z
" id="DejaVuSans-76"/>
     <path d="M 45.40625 27.984375 
Q 45.40625 37.75 41.375 43.109375 
Q 37.359375 48.484375 30.078125 48.484375 
Q 22.859375 48.484375 18.828125 43.109375 
Q 14.796875 37.75 14.796875 27.984375 
Q 14.796875 18.265625 18.828125 12.890625 
Q 22.859375 7.515625 30.078125 7.515625 
Q 37.359375 7.515625 41.375 12.890625 
Q 45.40625 18.265625 45.40625 27.984375 
z
M 54.390625 6.78125 
Q 54.390625 -7.171875 48.1875 -13.984375 
Q 42 -20.796875 29.203125 -20.796875 
Q 24.46875 -20.796875 20.265625 -20.09375 
Q 16.0625 -19.390625 12.109375 -17.921875 
L 12.109375 -9.1875 
Q 16.0625 -11.328125 19.921875 -12.34375 
Q 23.78125 -13.375 27.78125 -13.375 
Q 36.625 -13.375 41.015625 -8.765625 
Q 45.40625 -4.15625 45.40625 5.171875 
L 45.40625 9.625 
Q 42.625 4.78125 38.28125 2.390625 
Q 33.9375 0 27.875 0 
Q 17.828125 0 11.671875 7.65625 
Q 5.515625 15.328125 5.515625 27.984375 
Q 5.515625 40.671875 11.671875 48.328125 
Q 17.828125 56 27.875 56 
Q 33.9375 56 38.28125 53.609375 
Q 42.625 51.21875 45.40625 46.390625 
L 45.40625 54.6875 
L 54.390625 54.6875 
z
" id="DejaVuSans-67"/>
     <path d="M -0.203125 72.90625 
L 10.40625 72.90625 
L 30.609375 42.921875 
L 50.6875 72.90625 
L 61.28125 72.90625 
L 35.5 34.71875 
L 35.5 0 
L 25.59375 0 
L 25.59375 34.71875 
z
" id="DejaVuSans-59"/>
     <path d="M 8.5 21.578125 
L 8.5 54.6875 
L 17.484375 54.6875 
L 17.484375 21.921875 
Q 17.484375 14.15625 20.5 10.265625 
Q 23.53125 6.390625 29.59375 6.390625 
Q 36.859375 6.390625 41.078125 11.03125 
Q 45.3125 15.671875 45.3125 23.6875 
L 45.3125 54.6875 
L 54.296875 54.6875 
L 54.296875 0 
L 45.3125 0 
L 45.3125 8.40625 
Q 42.046875 3.421875 37.71875 1 
Q 33.40625 -1.421875 27.6875 -1.421875 
Q 18.265625 -1.421875 13.375 4.4375 
Q 8.5 10.296875 8.5 21.578125 
z
M 31.109375 56 
z
" id="DejaVuSans-75"/>
    </defs>
    <g transform="translate(860.457 463.5925)scale(0.16 -0.16)">
     <use xlink:href="#DejaVuSans-41"/>
     <use x="68.330078" xlink:href="#DejaVuSans-76"/>
     <use x="127.509766" xlink:href="#DejaVuSans-67"/>
     <use x="190.986328" xlink:href="#DejaVuSans-20"/>
     <use x="222.773438" xlink:href="#DejaVuSans-59"/>
     <use x="283.654297" xlink:href="#DejaVuSans-6f"/>
     <use x="344.835938" xlink:href="#DejaVuSans-59"/>
     <use x="405.919922" xlink:href="#DejaVuSans-20"/>
     <use x="437.707031" xlink:href="#DejaVuSans-52"/>
     <use x="507.126953" xlink:href="#DejaVuSans-65"/>
     <use x="568.650391" xlink:href="#DejaVuSans-74"/>
     <use x="607.859375" xlink:href="#DejaVuSans-75"/>
     <use x="671.238281" xlink:href="#DejaVuSans-72"/>
     <use x="712.335938" xlink:href="#DejaVuSans-6e"/>
     <use x="775.714844" xlink:href="#DejaVuSans-3a"/>
     <use x="809.40625" xlink:href="#DejaVuSans-20"/>
     <use x="841.193359" xlink:href="#DejaVuSans-31"/>
     <use x="904.816406" xlink:href="#DejaVuSans-34"/>
     <use x="968.439453" xlink:href="#DejaVuSans-2e"/>
     <use x="1000.226562" xlink:href="#DejaVuSans-34"/>
     <use x="1063.849609" xlink:href="#DejaVuSans-25"/>
    </g>
   </g>
  </g>
 </g>
 <defs>
  <clipPath id="p5cf2c8fe29">
   <rect height="543.6" width="1004.4" x="162" y="86.4"/>
  </clipPath>
 </defs>
</svg>
